<?xml version="1.0" encoding="utf-8"?>
<!-- Generator: Adobe Illustrator 22.0.0, SVG Export Plug-In . SVG Version: 6.00 Build 0)  -->
<svg version="1.1" id="Calque_1" xmlns="http://www.w3.org/2000/svg" xmlns:xlink="http://www.w3.org/1999/xlink" x="0px" y="0px"
	 viewBox="0 0 1920 1080" style="enable-background:new 0 0 1920 1080;" xml:space="preserve">
<style type="text/css">
	.st0{fill:#E72356;}
	.st1{fill:#EF243E;}
	.st2{fill:#F52658;}
	.st3{fill:#F52432;}
	.st4{fill:#F22137;}
	.st5{fill:#D8475C;}
	.st6{fill:#E12261;}
	.st7{fill:#F9274E;}
	.st8{fill:#DA4E69;}
	.st9{fill:#D64E63;}
	.st10{fill:#E51E3E;}
	.st11{fill:#D7213E;}
	.st12{fill:#D42547;}
	.st13{fill:#DA4354;}
	.st14{fill:#F9888C;}
	.st15{fill:#F7646B;}
	.st16{fill:#F94E57;}
	.st17{fill:#D94655;}
	.st18{fill:#CF415C;}
	.st19{fill:#D26A85;}
	.st20{fill:#D73D5B;}
	.st21{fill:#FAF5F1;}
	.st22{fill:#F4252C;}
	.st23{fill:#FC2C39;}
	.st24{fill:#F1252C;}
	.st25{fill:#F72736;}
	.st26{fill:#F95867;}
	.st27{fill:#FD3758;}
	.st28{fill:#E8E7E7;}
	.st29{fill:#FBC1B2;}
	.st30{fill:#FAA292;}
	.st31{fill:#DE5471;}
	.st32{fill:#F73B4E;}
	.st33{fill:#F99397;}
	.st34{fill:#F24657;}
	.st35{fill:#FC7F85;}
	.st36{fill:#FA767D;}
	.st37{fill:#FDB9B1;}
	.st38{fill:#FCA19A;}
	.st39{fill:#F9D1BF;}
	.st40{fill:#F99493;}
	.st41{fill:#FBB8AF;}
	.st42{fill:#FBCABC;}
	.st43{fill:#F8D7C6;}
	.st44{fill:#F9D7C8;}
	.st45{fill:#F8BFB9;}
	.st46{fill:#FAB2A8;}
	.st47{fill:#FBA99F;}
	.st48{fill:#FAC4B6;}
	.st49{fill:#FBA6A1;}
	.st50{fill:#F6E3DB;}
	.st51{fill:#F8E4D7;}
	.st52{fill:#FBE6DD;}
	.st53{fill:#F9D7CE;}
	.st54{fill:#FEDFD0;}
	.st55{fill:#FCD7CD;}
	.st56{fill:#E6E7E7;}
	.st57{fill:#E7E7E6;}
	.st58{fill:#F5C4C9;}
	.st59{fill:#FDD2C2;}
	.st60{fill:#FDA099;}
	.st61{fill:#FDDFD0;}
	.st62{fill:#FDDACC;}
	.st63{fill:#DB4451;}
	.st64{fill:#FBAFA3;}
	.st65{fill:#FB928F;}
	.st66{fill:#FBBDAD;}
	.st67{fill:#FBC3B3;}
	.st68{fill:#FDBDB5;}
	.st69{fill:#FD9D98;}
	.st70{fill:#FDB3A7;}
	.st71{fill:#FED3C3;}
	.st72{fill:#FDC7B7;}
	.st73{fill:#FCB2AA;}
	.st74{fill:#F9CAB9;}
	.st75{fill:#FEDECF;}
	.st76{fill:#FCC8BC;}
	.st77{fill:#FCA79C;}
	.st78{fill:#FB8F8C;}
	.st79{fill:#FABBAA;}
	.st80{fill:#D1576D;}
	.st81{fill:#D7536C;}
	.st82{fill:#D14763;}
	.st83{fill:#DD5268;}
	.st84{fill:#FC6D72;}
	.st85{fill:#FC3F47;}
	.st86{fill:#FC5862;}
	.st87{fill:#FCA8AD;}
	.st88{fill:#FD4147;}
	.st89{fill:#F88088;}
	.st90{fill:#FC979B;}
	.st91{fill:#FD4D60;}
	.st92{fill:#FC848C;}
	.st93{fill:#FCB9A9;}
	.st94{fill:#F4B1A3;}
	.st95{fill:#FC9389;}
	.st96{fill:#FBAD9F;}
	.st97{fill:#FC9E95;}
	.st98{fill:#FAEAE5;}
	.st99{fill:#F5C7BB;}
	.st100{fill:#FCB7A9;}
	.st101{fill:#F29991;}
	.st102{fill:#CA434E;}
	.st103{fill:#F6CBC1;}
	.st104{fill:#FCC5C7;}
	.st105{fill:#FCA0A3;}
	.st106{fill:#FDBDC2;}
</style>
<g>
	<path class="st0" d="M341.6,525.7c-0.8,0.6-1.5,1.2-2.3,1.8c-0.7,0.7-0.9,1.9-1.8,2.4c-3.9,1.9-7.3,4.6-10.3,7.8
		c-1.1-1-2.1-2.5-3.7-1.4c-5,3.5-9.4,0.6-13.9-1.1c-0.9-0.3-1.9-0.6-2.8-1.1c-3.3-1.5-6.8-2.6-9.9-4.8c0.7,2.4,1.1,4.6-0.8,6.5
		c1.2-8.5-4.5-11.4-10.9-14.6c-20.3-10.3-39.3-22.4-54.7-39.5c-10.6-11.7-19.9-24.4-22.6-40.4c-3.6-21.1-0.8-40.9,17.4-54.9
		c12.3-9.5,27-10,42-7.9c19.2,2.6,34.9,11.5,47.2,26.3c2.7,3.2,4.3,4.1,6.5,0.1c0.3-0.5,0.9-0.9,1.4-1.4c0.5-0.2,1.1-0.2,1.4,0.2
		c3.7,5.4,7.6,2.9,11.8,0.7c8-4,15.5-9,23.8-12.5c1.8-0.8,3.5-2,5.6-0.8c0.6,3.3-2.6,3.4-4.2,4.6c-8.5,6.1-17.1,12-24.4,19.6
		c-1.5,1.6-2.7,3.3-3.1,5.5c-1.5,1.9-3.8,2.3-6,2.7c-1.7,0.3-3.5,0.4-4.8,1.8c-0.4,0.6-0.9,1.1-1.6,1.3c-3.4-1.8-0.8-5.9-3-8.4
		c-2.7,1.9-0.8,6.6-4.9,7.3c-1.6-2.7-4.5-3.9-6.8-5.7c-3.8-3-4.6-8.9-8.4-10.8c-4-2-8.1-3.5-11.2-6.8c-2.1-2.2-4.8-3.3-8-3.7
		c-7.6-0.9-14.9-3.3-22.7-3c-6.6,0.2-10.8,2.9-14.6,8.6c-7.9,12.1-7.5,25.1-5.8,38.5c0.1,1.2,0.5,2.3,1,3.3
		c8.1,16.3,19,30.3,34.1,40.8c5.2,3.6,10.1,7.5,14.6,12c3.3,3.3,7.4,5.7,11.7,7.5c11.1,4.6,22,9.5,32.9,14.4
		C333.8,522.5,338.3,522.6,341.6,525.7z"/>
	<path class="st1" d="M341.6,525.7c-2.3-0.2-4.7-0.2-5.8-2.9c-0.2-0.4-1.5-0.9-1.6-0.8c-3.5,4.9-4.9-0.5-7.1-1.4
		c-9.3-3.9-18.6-8-27.9-11.9c-6.6-2.8-12.6-6.2-17.5-11.8c-3.5-4-8.2-7.2-12.9-10c-7.7-4.5-12.6-11.7-18.9-17.5
		c-6.9-6.3-10.1-15.2-14.2-23.1c-3.5-6.6-2.2-14.8-2.1-22.5c0.2-8.6,4.1-15.5,8.1-22.5c2.4-4.3,6.7-6.4,11.6-6.8
		c5.8-0.4,11.6,0,17.3,1.2c3.6,0.8,7,1.7,10.7,1.9c3.3,0.2,5.5,2.8,7.8,5c2.4,2.3,4.4,5.5,8.8,4.1c1.9-0.6,2.7,1.7,3.2,3.2
		c1.9,5.5,5.3,9.5,10.7,11.6c2.3,0.9,1.3,2.7,1.7,4.2c0.4,2.6,0.8,5.2-1.6,7.1c-1.3,0.2-2.5,0.6-3.5,1.7c-2.8,3.3-5.9,1-8.6,0.1
		c-1.7-0.6-1.1-2.5,0-3.8c1.3-1.5,1-2.9-0.6-3.7c-8-4.1-13.6-11.3-22-15.2c-8.8-4.1-16.1-1.5-23.8,1.8c-0.5,0.2-0.8,0.6-1.1,1
		c-2.4,2.8-4.1,16.6-2.3,19.9c0.9,1.6,1.6,3.3,2.1,5c1.6,6.3,1.6,6.3,7.7,9.1c1.1,0.5,2.1,1.2,2.1,2.5c0.1,1.5-0.9,2.4-2.2,3
		c-2.2,0.9-4.6,0.1-7.3,1c1.2,1.3,3,0.9,4,1.8c4,3.4,7.6,2.8,9.9-1.7c1-1.8,1.3-4.9,3.7-4.6c2.3,0.2,2.3,3.3,2.9,5.3
		c1.8,5.6,3,11.5,5.3,17c-1.2,4.7,2.5,5.8,5.4,7.8c5.3,3.7,11.6,6,15.5,11.4c0.9,1.3,2.4,1.7,3.9,2.1c6.5,1.9,12.1,6.3,19,7.3
		c1.5,0.2,2.6,1.4,3.5,2.6c8.2,3.2,16.7,5.1,25.4,3c3.7-0.9,7.9-1.4,10.2-5.5c0.9-1.5,2.7-1.2,4-0.4c2.6,1.6,4.7,0.6,6.8-1
		c3.9-0.7,8.7,0.4,10.2-5.1c0.4-0.3,0.8-0.6,1.2-0.8c2-0.4,3.7-1.2,5.2-2.6c1.8-1.7,4.1-3.2,6.3-0.2
		C378.5,505.5,360.9,516.8,341.6,525.7z"/>
	<path class="st2" d="M333.3,420.5c-1.5-2-0.2-3.2,1.1-4.6c8.6-9,18.4-16.4,28.9-22.9c0.7-0.4,1.3-1,2-1.5c2.5-2.8,5.8-4.4,9.3-5.3
		c3.6-1,7.4-1.3,10.1-4.6c1.1-1.4,3.1-1.4,4.6-0.5c2.6,1.6,4.8,2.6,7.5,0.2c0.9-0.8,2.6-0.3,3.8,0.2C415,386.3,422.8,397,427,411
		c2.5,8.5,2.7,17.2,1.3,26c-0.1,0.6-0.7,1.1-1.1,1.6c-2.9,1.1-4.5-0.1-5.2-2.9c0.5-1.4,1.7-2.9,0.2-4.1c-4.1-3.4-4.6-8.4-5.6-12.9
		c-1.8-8.1-6.7-13-13.6-17.3c-14.4-9-27.1-5.8-39.3,4c-1.7,1.3-3.4,2.7-5.2,3.8c-8.2,2.2-15.7,5.7-22.5,10.8
		C335.2,420.4,334.3,420.9,333.3,420.5z"/>
	<path class="st3" d="M339.1,553.5c0.1,3.9,0.2,7.7,0.2,11.6c0.6,2.2,0,4.2-0.7,6.2c-1.6,1.2-1.8-0.7-3.1-1.4
		c-1.2,16.2,0.8,31.5,8.4,45.8c4.4,9,13.3,11.7,21.5,15.4c1.5,0.7,3.1,1.1,4.6,1.7c10,3.1,20.5,3.4,30.5,6.4
		c4.5,1.4,9.1,1.3,13.7-0.1c-3.7-2.4-8.1-2.6-12.3-3.2c-1.8-0.3-4.1,0.4-4.7-2.3c12.6-0.3,25.3,0.8,37.7-2.1c2.8-0.6,6.1-0.3,7.2-4
		c0.4-0.3,0.8-0.4,1.2-0.3c0.9,0.5,1.4,1.2,2,2c2,3.6,7,5.1,7.3,10c-0.2,0.5-0.5,0.9-0.9,1.2c-7.5,4.2-16,4.5-24.2,6.1
		c-1.9,0.5-3.7,1.3-5.3,2.4c-1.3,0.8-2.7,2.2-4.3,0.5c-0.4-3.5-3.2-2.4-5.1-2.3c-13.5,0.4-26.9-0.7-40.1-4.1
		c-7.1-1.8-14-4.2-20.5-7.7c-9.6-5.2-16.2-12.6-19.3-23.1c-3.1-10.6-5.4-21.3-5.1-32.4c1.3-4.8,1.9-9.6,1.9-14.6
		c0-3.6,1.3-6.8,3.5-9.5C334.7,553.6,336.4,551.7,339.1,553.5z"/>
	<path class="st4" d="M211.3,633.5c13.5-0.2,26.9,0.7,40.3-1.8c8.2-1.6,16.1-3.9,23.7-7.3c11.9-5.4,15-16.2,16.8-27.7
		c1.8-11,2.8-22.1,3.3-33.3c-0.2-3.6,2-6.6,3-9.9c0.6-1.9,2.3-2.8,4.3-2.7c2.2,0.1,3.3,1.6,3.5,3.6c0.3,2,1,3.8,1.8,5.6
		c0.5,5.7,1.7,11.5-1.1,17.1c-1.6,1.4-2.3,0-3-1.1c-1-1.5-0.7-3.6-2.8-5.8c-2.3,10-3.2,19.6-4.7,29c0,0.8-0.2,1.5-0.4,2.2
		c-1.6,10.6-7.2,18.6-15.7,24.8c-2.7,0.8-4.6,3.3-7.6,3.6c-3.6,0-6.8,1.3-9.9,2.9c-8,4.3-16.7,6.1-25.7,6.7
		c5.7,2.1,11.5,0.7,17.2,0.3c2.5-0.1,4.9-0.9,7.4-1c1.8-0.1,3.9-0.3,3.6,2.6c-2.1,2.3-5,2.5-7.7,3c-14.9,2.7-29.8,3.5-44.9,2.4
		c-3.1-2.4-2.3-6-2.6-9.2C210.2,636.1,207.9,633.9,211.3,633.5z"/>
	<path class="st5" d="M226.9,815.8c-3.9-4.5-6.9-9.4-6.7-15.6c0.1-2.4-0.9-2.7-2.9-2.6c-3.5,0.1-6.8-0.1-10.2-1.6
		c-9.5-4.2-13.3-10.6-11.3-20.8c0.5-2.7-0.1-3.6-2.8-3.6c-14-0.1-25.5-6.7-32.1-18.1c-12.1-21.1-31.4-34.4-49.1-49.5
		c-6.7-5.7-13.6-11.2-20.5-16.7c-2.6-2.1-2.8-3.9-0.4-6.1c0.5,0.2,0.8,0.5,1,0.9c0.6,2.6,2.5,4.2,4.4,5.8
		c17.8,14.4,35.5,28.8,52.6,44c2.7,2.4,4.4,5.3,6.2,8.3c2.3,3.9,4.7,7.7,7.3,11.3c7.9,9.8,17.2,17,30.6,17.1c1.7,0,3.3,0,4.8-0.8
		c5-2.5,10.5-2.2,15.6-1.1c7,1.4,11.9,5.8,13.2,13.2c0.6,3.3,2.1,4.6,5.6,4.7c7.4,0.3,14.5,1.7,20.3,6.9c0.6,0.5,1.1,1.1,1.6,1.7
		c1.9,2.7,2.4,5.7,2.4,8.9c1,4.6,0.4,9.2-0.7,13.7c-0.4,1.6-0.5,2.9,1.5,3.5c6.9,1.8,11.2,6.7,14.3,12.7c0.4,0.7,0.6,1.4,0.9,2.1
		c0.8,2.1,1.8,4.2,1.9,6.5c0.1,1.7,0.3,3.4,0,5c-0.7,4.7,1,7.5,5.2,10c6.7,3.9,7.6,11,7.6,17.9c0,3.2,0.5,5.8,2.3,8.3
		c0.1,0.5,0,1-0.4,1.4c-4.2-2.4-8.5-3.7-13.5-3.8c-6.4-0.2-11.6-7.1-11.4-15.2c0.1-5.2-1.1-7.6-6.6-8.9
		c-11.8-2.9-14.4-13.5-17.4-23.3c-0.6-2,1-3.7,1.8-5.9c-3.2-1.1-6.7-1.7-9.1-4.2c0.1-0.5,0.5-0.8,0.9-1c1-0.3,1.9-0.2,2.8,0.2
		c7.5,3.1,11.9,1.8,14.4-4.6c2.7-5.9,1.9-12,0.6-18.1c-0.3-1.3-0.9-2.5-1.8-3.5c-4.2-5.1-17.6-7.3-23.5-4
		c-5.2,7.6-3.4,14.8,1.1,21.9c0.3,0.7,0.5,1.4,0.3,2.1C227.7,815.4,227.4,815.7,226.9,815.8z"/>
	<path class="st6" d="M400.6,381.4c-1.3,0.2-3.4,0.1-3.7,0.7c-2.4,5.6-4.8,2.2-7.4,0.3c-1.9-1.4-3.9-1.4-5.1,0.8
		c-1.5,2.7-3.7,3.3-6.5,3.4c-4.8,0.1-8.2,3.9-12.7,4.9c-6.4,1-11.5,4.8-17,7.6c-6.3,3.2-12.6,6.6-18.7,10.2
		c-1.5,0.9-1.6,0.7-2.5-0.6c-1.3-1.9-3-3.4-4.6-5.1c13.3-15.5,30-24,50.4-25.3c4.9,0.1,9.8-1,14.8,0.1
		C392.2,378.2,396.5,379.6,400.6,381.4z"/>
	<path class="st7" d="M422.2,435.5c1,2,2.9,2.6,4.9,3c1.1,7.9-2.4,14.6-6,21.2c-6.8,12.3-15.3,23.3-26.5,32
		c-2.4-1.1-4.4-0.7-5.9,1.6c-1.3,2.1-3.4,2.4-5.6,2.2c-0.5-2.4,1.3-3.6,2.8-4.7c3.3-2.3,5.6-5.4,7.8-8.6c1.3-1.6,2.4-3.5,4-4.9
		c4.6-5.5,5.6-12.8,8.8-18.9c1.1-2.1,1.9-4.2,3.8-5.8c4.1-3.6,4.9-8.9,7.1-13.5C418.5,437.2,418.7,434.1,422.2,435.5z"/>
	<path class="st8" d="M90.9,681.2c3.3-6.4,8.3-11.6,13.1-16.9c16.8-18.5,34.1-36.4,54-51.6c0.5-0.4,1.1-0.7,1.6-1.2
		c5.3-5.6,10.9-4.2,16.5-0.7c0.2,0.8-0.3,1.1-0.9,1.3c-1.6,0-3.3-0.3-4.8,0.7c-5.2,2.7-9.9,6-13.8,10.5c-4.2,4.5-9.3,8-13.5,12.5
		c-5.4,5.8-3.5,15.1,4,17.7c4.9,1.7,9.8,1.8,13.7-2.7c2.4-2.8,5.1-5.2,8.1-7.3c2.5-1.8,3.1-3.3,0-5.5c-4.8-3.5-9-7.8-11.6-13.4
		c0.9-3.8,7.5-9.3,11.2-9.3c0.2,3.3-2.6,4.4-4.5,6.1c-2,1.8-2.5,3.4-0.5,5.4c0.5,0.5-0.1-0.2,0.3,0.4c8,10.2,8,10.2,18.1,2.3
		c2.1-1.6,4-3.8,7-2.2c1,2.8-1.3,3.8-2.9,5c-2.1,1.7-4.1,3.4-5.1,6c-5.6,4.7-11.1,9.4-16,14.8c-4.7,5.1-10.4,6.9-17.1,5.3
		c-10.1-3.4-14.3-10.3-12.2-19.6c1.3-3,3.4-5.2,5.8-7.3c7.9-6.9,15.4-14.3,24.1-20.4c-18.6,12.4-34.1,28.3-49.8,44
		c-2.9,2.9-5.1,6.5-8.2,9.2c-4.4,4.6-8.2,9.8-12.3,14.6c-1.1,1.3-1.8,3.3-4.2,2.7L90.9,681.2z"/>
	<path class="st9" d="M431.6,791.8c-7,8.7-14.6,16.8-23.2,23.9c-3,2.5-4.6,5.1-4.2,9.2c0.5,5.6-0.1,11.3-0.4,16.9
		c-0.6,11.2-15.5,19-26.1,15c-1.2-0.5-3.2-2.7-3.7,0.5c-1,7-6,9.3-11.8,11c-0.3-0.4-0.5-0.9-0.3-1.4c0.1-0.3,0.3-0.7,0.6-0.8
		c7.8-3.2,9.5-9.5,8.4-17.1c-0.1-2.4-0.1-4.9,0-7.3c0-0.8,0-1.7,0-2.5c-0.3-5.5,0.5-11.1-0.3-16.6c-0.2-0.5-0.3-1.1-0.4-1.6
		c-0.4-2.4-0.2-4.9-0.3-7.3c-0.7-5.6-1.9-11.1-2.1-16.7c-0.4-9.1-4.3-16.8-9-24.3c-10.5-13.4-20.1-27.5-31.2-40.5
		c-0.4-0.5-0.7-1.1-0.8-1.8c2.1-3.3,3.8-0.7,5.1,0.6c3,3.1,5.6,6.6,8.2,10c7.1,9.2,13.9,18.7,21,27.9c3.8,4.9,6.8,10.3,8.9,16.1
		c2.6,7.1,2,14.7,3.4,22c1.6,9,1,18.1,2.3,27.1c0.1,2.5-0.1,5-0.1,7.5c0.1,1.7-0.1,3.3-0.1,5c0,6.3,1.9,8.5,8.3,8.4
		c6.9-0.1,12.4-3.2,16-9.2c1.1-2.6,1.1-5.3,1.1-8.1c0-0.8,0-1.5,0.1-2.3c0.1-0.8,0.2-1.5,0.4-2.3c0.8-3.3,0.7-6.6-0.2-9.9
		c-0.3-4-1.1-8-1-12c0.3-1.3,0.7-2.5,1.5-3.5c2-1,2.1,0.7,2.4,1.9c0.5,1.8,0,3.6,0.4,5.9c5-4.8,10.5-8.6,14.7-13.9
		c3.1-4,6.5-7.9,11.1-10.4C431,791.2,431.3,791.4,431.6,791.8z"/>
	<path class="st10" d="M339.1,553.5c-4.7,1.1-7.7,4.9-7.8,10.3c-0.1,5.4-0.3,10.7-2.1,15.9c-1.9-0.4-2.1-2-2.3-3.4
		c-1.3-11.6-1.5-23.2-1.1-34.8c0.1-1.5,0.3-3,1.6-4c0.6-4,3.5-5.6,6.7-7c1.8-0.8,3.4-2,5.1-3C339.2,536.2,339.2,544.8,339.1,553.5z"
		/>
	<path class="st11" d="M181.3,637.3c-1.4-3.1,1.7-3.8,3.1-5.1c1.6-1.6,3.8-2.5,4.9-4.6c-0.7-1,0-1.7,0.7-2.3
		c0.5-0.2,0.8-0.1,1.2,0.3c0,2.6,1.3,4.2,3.9,4.7c5.4,1,10.9,2.1,16.3,3.2c-3.3,4.1,2.8,0.7,2.1,2.8c-0.9,0.7-1.7,3.4-1.1,7.1
		c0.2,1.4-0.7,1.1-1,1.7c-0.5,1-1.7,1.3-2,2.4c-6.6-2-13.6-2.5-20.1-4.8C186.2,641.5,182.7,640.9,181.3,637.3z"/>
	<path class="st9" d="M495.6,630.2c14.9,16.6,28.8,33.9,38.1,54.4c1.6,3.5,0.9,5.5-1.6,7.8c-4.6,4.2-10.1,7.1-15.4,10.1
		c-21.9,12.5-40.6,28.3-55.8,48.8c-8.2,11.1-14.8,23.2-23.5,33.9c-1.9,2.3-3.5,4.8-5.9,6.7c-0.2-0.2-0.3-0.3-0.5-0.4
		c-1.1-1.9,0.5-3.1,1.4-4.4c5.3-7,10.7-14,14.8-21.8c4-7.5,10.3-13.3,15.3-20.1c9.8-13.4,21.8-24.4,35.1-34c2-1.1,3.5-2.8,5.3-4.1
		c1.4-0.6,2.8-1.3,4.1-2.1c1.4-0.8,2.8-1.4,4.1-2.2c5.3-3.4,11-6,16-9.9c1.5-1.1,2.9-2.2,3.8-3.9c0.7-4.7-3.2-7.6-4.5-11.5
		c-3-8.2-8.4-14.9-13.5-21.8c-5.3-7.2-10.8-14.2-16.7-20.9c-0.9-1-1.7-2-1.6-3.5C494.8,630.7,495.1,630.4,495.6,630.2z"/>
	<path class="st12" d="M307.3,559.5c-2.4-1-2-3.1-2.1-5.1c-0.1-1.4-0.7-2.6-2.3-2.7c-1.6-0.1-3.6,0.6-3.4,2.1c0.5,4.1-3.4,6.1-4,9.6
		c0.2-9.2,0.4-18.4,0.5-27.6c0-2.4,0-4.9,0-9.1c3.7,4.4,8.6,3.4,11.3,7.1c0.6,0.5,1.4,1.1,1.5,1.9
		C309.9,543.8,311.2,551.8,307.3,559.5z"/>
	<path class="st13" d="M362.2,867.5c0,0.3,0,0.6,0,0.9c-6,1.9-11.9,2-17.7-0.9c-2.6-1.3-4.5-2-5.9,2c-1.5,4.2-5.5,5.9-9.9,6.1
		c-3.1,0.1-6.2-0.2-9.4-0.3c0-1.5,1.1-1.6,2.1-1.9c0.6-0.1,1.3-0.2,2-0.2c10.5,1,15.8-3.6,13.9-18c-0.8-3.4,0.1-6.9-0.9-10.3
		c-0.2-0.8-0.3-1.6-0.4-2.3c0.7-18.4-4.7-35.3-12.1-51.8c-1.9-4.2-4-8.5-5.2-12.9c-2.1-8.3-6.8-14.2-14.1-18.3
		c-1.4-1.2-2.9-2.1-4.6-2.8c-1.4-0.6-2.8-1.3-2.1-3.2c2-1.7,4-0.8,5.8,0.3c2.8,1.7,5.5,3.5,7.8,5.7c1.6,1.3,3.3,2.4,4.7,3.8
		c3.4,3.1,4.3,7.5,5.8,11.5c4.1,10.7,8.6,21.3,12.8,32c2,5,3.2,10.1,3.8,15.5c1.4,9.9,1.5,19.9,2.8,29.8c0.1,0.7,0.1,1.3,0.1,2
		c0,9.9,3.6,13.3,13.8,13.1C357.7,867,360.1,865.8,362.2,867.5z"/>
	<path class="st14" d="M369.3,633.5c-6.7-1.8-12.9-4.7-18.9-8.3c-3.4-2.1-5.4-5.3-7.2-8.6c-2.6-4.6-4.3-9.5-5.2-14.8
		c-0.3-1.9-0.9-3.9,1.5-4.5c2.5-0.7,2.8,1.8,3.5,3.3c0.4,1.1,0.7,2.2,0.9,3.3c2.4,14.2,12.5,20.7,24.9,24.8c0.8,0.3,1.6,0.5,2.3-0.2
		c3.4,0.9,6.8,1.8,10.2,2.8c2,1.6,5.2,0.1,7.5,3.4C381.8,636.9,375.5,634.9,369.3,633.5z"/>
	<path class="st15" d="M371.2,628.5c-5.2,2.4-8.6-1.9-12.6-3.6c-9.1-3.7-13-11.7-15.5-20.7c-0.6-2.2-0.3-6.6-3.4-5.9
		c-3.1,0.7-0.1,4.3-0.3,6.6c-0.3,4.3,3.8,7.3,3.8,11.6c-5.7-6.2-5.7-14.6-7.8-22.1c-2.2-7.9-2.1-16.2-1.2-24.4
		c0.1-1.4-0.4-3.6,1.4-3.7c2-0.1,1.3,2.2,1.7,3.5c0.2,0.6,0.6,1.1,0.9,1.7c1.6,4.2,1.6,8.6,2,13c0.3,3.1,0.2,6.2,2.2,8.8
		c0.7,3.4,1.5,6.8,2.2,10.2c2.2,11.3,8.9,18.7,19.7,22.5C366.6,626.8,368.9,627.7,371.2,628.5z"/>
	<path class="st16" d="M369.3,633.5c6,0.7,11.9,1.7,18.3,0.9c-2-1.9-4.4-1.5-6.4-2.2c-0.1,0-0.1-0.3,0-0.4c0-0.1,0.2-0.3,0.3-0.4
		c5.3,0.7,10.6,1.5,15.9,2.2c3.6,1.9,7.8,0.6,11.6,1.8c1.8,0.6,3.9,0.4,5.4,1.9c0.7,0.6,2.6-0.1,2.1,1.9c-0.4,1.9-1.5,2.3-3.2,2.3
		c-5.8,0.3-11.5-0.5-17.1-1.9c-7.7-1.9-15.6-2.9-23.3-4.5C371.6,634.9,370.1,634.8,369.3,633.5z"/>
	<path class="st17" d="M321.4,874.4c-0.7,0.3-1.4,0.6-2.1,0.9c-3.6,0-5.8-3-9-4.3c-1.7,2.9-0.7,7.3-4.7,8.8
		c-0.5-0.3-0.7-0.8-0.7-1.3c3.7-8.2,0.8-16.5,0.5-24.8c-0.5-2-0.3-4.1-1.1-6.1c-1.3-3.1-1.1-6.6-1.9-9.8c-1.3-5.8-2.9-11.6-4.3-17.4
		c-2-8.5-7.7-14.9-12.8-21.6c-1.3-1.7-2.8-3.2-3.8-5.2c-2.6-4.9-7-8.5-9.8-13.2c0.1-0.5,0.3-0.9,0.7-1.2c2-0.7,3.1,0.7,4.4,1.8
		c1.2,1.2,2.3,2.3,3.3,3.6c4.4,6.1,9.2,11.9,13.7,17.9c2.7,3.6,5.1,7.4,6.7,11.6c4.2,12.8,6.8,25.9,9.1,39.1c0.1,3.6,1,7.2,1.2,10.8
		c0.2,4.2,3.5,6.1,6.8,7.8C319,872.5,321.1,872.2,321.4,874.4z"/>
	<path class="st18" d="M452.3,639.5c0.1-0.3,0.2-0.6,0.2-1c2.8-0.2,3.8,2.3,5.6,3.6c4.4,4.3,8,9.4,12.2,13.9c5.6,6,14.1,5.5,19-1.1
		c3.2-4.3,3.5-8.2,0.1-12.3c-7.3-8.9-15.1-17.3-23.5-25.2c-2.5-2.3-5.2-1.7-7.9-1.4c-0.5-0.1-0.8-0.4-1-0.9c1.9-2.1,4.3-3.2,7.2-2.7
		c0.4-0.4,0.9-0.4,1.4-0.2c10.2,8.3,19,18,27.4,28c6.3,7.5,0.6,21.5-9.3,23.2c-6.2,1-12.3,0.7-16.7-4.9c-2.7-3.6-5.8-6.8-8.7-10.3
		C456.9,645,452.4,643.8,452.3,639.5z"/>
	<path class="st9" d="M465.7,612.6c-0.5-0.1-1-0.1-1.6-0.2c6.8-7.1,6.9-7.2,14-0.6c6.2,5.7,12.4,11.5,17.4,18.3
		c-0.2,0.2-0.5,0.4-0.7,0.6c-2.2-0.2-3.4-2-4.8-3.3c-4.3-4.2-8.4-8.5-12.7-12.6C472,609.7,472,609.8,465.7,612.6z"/>
	<path class="st10" d="M342.4,593.3c-0.1,0.6-0.2,1.3-0.6,3.3c-3-8.9-3.5-17-3.6-25.1c-0.3-2.3,0.8-4.3,1.1-6.4
		C340.4,574.5,341.4,583.9,342.4,593.3z"/>
	<path class="st19" d="M191.1,625.6c-0.4,0-0.8-0.1-1.1-0.1c-2.3,0.2-3.6-1.6-4.8-3c-3.2-3.8-8-6.1-9.9-11c0.3-0.3,0.6-0.5,0.9-0.8
		C181.8,615,187.6,619.2,191.1,625.6z"/>
	<path class="st18" d="M443.2,627.5c-0.3,0-0.7,0-1,0c3.6-5.7,9.1-9.1,14.8-12.3c0.2,0.2,0.3,0.4,0.5,0.6
		C453.9,621.1,448.9,624.8,443.2,627.5z"/>
	<path class="st20" d="M289.3,883.2c0-0.3,0-0.6,0-0.9c5.3-1.3,10.4-3.3,16-2.8c0,0,0.3,0.3,0.3,0.3
		C300.8,884.2,295.1,883.9,289.3,883.2z"/>
	<path class="st2" d="M387.6,378.4c-4.9-0.6-9.8,1.5-14.8-0.1C377.8,377.1,382.7,377.1,387.6,378.4z"/>
	<path class="st5" d="M233,821.8c-2.4-1.6-4.5-3.6-6.1-6c0.2-0.2,0.5-0.4,0.7-0.6c3.7,0.4,5,3,5.8,6.1
		C233.2,821.5,233.1,821.7,233,821.8z"/>
	<path class="st21" d="M311.4,432.7c2.1-1.9-0.1-5,2-6.9c0.9-2.8,1.9-5.6,2.8-8.4c0.3-1,0.5-2,1.8-2c1.3,0,1.5,1.2,1.6,2.1
		c0.5,3.1,1,6.2,1.5,9.3c2.7,2.9,1.5,6.7,1.9,10c1.7,15,3.3,30.1,4.3,45.3c1.3-6.8,3.4-13.2,5-19.8c0.9-3.9,2.8-6.4,7.1-6.2
		c3.7,0.2,5.6-2.5,7.8-4.7c2.2-1.4,4-0.7,5.7,1.1c3.7,3.6,3.7,3.6,5.7-1.4c0.2-0.6,0.5-1.2,0.8-1.8c0.8-1.5,1.4-3.1,2.6-4.4
		c2.7-2.2,4.6-1.1,5.9,1.6c0.9,1.8,1.7,3.6,2.4,5.4c1.3,3.2,3.5,4.7,6.9,4.3c0.8,0,1.6,0,2.4,0.1c1.5,0.3,2.8,0.7,3.1,2.5
		c-0.4,3.4-3.1,2.9-5.4,3.1c-2.2,0-4.4,0-6.5-0.2c-4-0.9-4.6-4.8-6.7-8.3c-2.3,5.3-4.7,9.9-11.3,8c-1-0.3-1.8-0.8-2.7-1.3
		c-8.3,0.5-12,3.4-14.1,10.8c-2,7.1-4,14.1-5.8,21.2c-0.4,1.6-0.9,3.2-1.7,4.7c-0.7,1.2-1.5,2.3-3,2.3c-1.8,0-2.6-1.3-3.1-2.7
		c-0.7-1.7-0.8-3.6-0.8-5.4c0-13-2.2-25.8-3.3-38.8c-0.6-7.4-1.6-14.8-1.9-21.5c-1.5,8.8-4.6,18-7.4,27.1c-1.4,4.5-10.4,6-15.3,2.7
		c-1.5-1-1.9-0.5-3.4-0.1c-5.7,1.6-8.5,5-9.7,10.5c-0.3,1.5-1.4,3.1-3.6,2.7c-3.5-5.2-3.6-11.5-5.8-17.2c-0.6-1.6-1-3.4-1.5-5.2
		c-1.8,1.1-2.1,2.8-2.7,4.3c-1.9,4.9-5.8,6.9-10.6,5.1c-2.1-0.8-1.2-1.9-0.5-3c5.2-1.5,8.2-5.2,9.8-10.2c0.6-1.7,1.6-3.5,3.8-3.4
		c2.5,0.1,3.3,2.1,3.8,4c1.2,4.5,2.9,8.8,4.1,14.3c1.1-4.1,3.4-5.7,6.6-6c2.3-0.2,3.3-1.9,4.5-3.5c2.6-3.6,4.1-3.5,6.8,0.1
		c0.4,0.5,0.7,1.2,1.1,1.6c2.7,2.9,6.4,2.3,7.7-1.5c1.6-4.5,2.7-9.3,4.1-13.9C309.3,436.8,309.4,434.3,311.4,432.7z"/>
	<path class="st22" d="M348.3,451.5c-2.2,3.9-4.7,7.1-10,6.1c-2.6-0.5-3.7,1.3-4.3,3.8c-1.6,6.6-3.3,13.2-5.2,19.8
		c-0.5,1.7-0.3,3.7-2.4,5.2c-1.8-20.1-3.5-39.9-5.3-59.7c0.1-0.7,0.2-1.4,0.3-2.2c3.5,2.6,7.1,3.5,11.5,1.8c2.8-1.1,5.9-1.1,9.2,0.3
		c4.8,2.1,6.9,5.1,6.5,10.4c-0.3,3.1,0,6.4,2,9.1C353.1,449.6,351.5,450.8,348.3,451.5z"/>
	<path class="st23" d="M348.3,451.5c2-1.4,4.1-1.8,0.7-5c-2.4-2.2-1.9-7.1-1.8-10.9c0.1-5.4-5.1-9.6-10.5-8.4
		c-2.9,0.7-7.2-1.5-8.2,4.1c-1.2-3.9-6.4-2.8-7.1-6.8c3.1-3.7,8.4-1.3,11.8-4.1c7.4-5.9,15.3-10.9,25-12c1.3-0.3,2,0.3,2.4,1.4
		c-1,7.5-4.4,14.5-4.8,22.3c-0.4,6.6,0.5,13.1,0.3,19.6c1.9-4,2.1-4.1,4.3-2c-0.3,0.8-0.4,1.6-0.8,2.3c-1.1,1.9-0.5,5.1-3.5,5.3
		c-2.7,0.2-2.9-2.7-4.1-4.4C351,451.7,349.9,451.1,348.3,451.5z"/>
	<path class="st24" d="M311.4,432.7c-2.1,7.7-4.2,15.4-6.1,23.1c-0.5,1.9-1.7,1.9-2.9,1.7c-2.2-0.4-5.1,1.5-6.5-1.9
		c-0.5-1.2-1-2.5-1.6-3.6c-1.1-2-2.7-2.2-3.7-0.1c-1.7,3.7-3.5,6.6-8.4,5.8c-1.5-0.2-2.4,1.6-2.7,3.1c-0.2,1.5-0.6,2.9-1.9,4.6
		c-1.8-6.1-3.5-11.9-5.3-17.7c-0.4-1.4-0.4-3.3-2.3-3.4c-1.9-0.1-1.9,2-2.6,3.2c-0.7,1.1-1.2,2.4-1.7,3.6c-1.6,4.5-4.2,7.3-9.5,6.3
		c-0.5,0-1,0-1.5,0c-2.2,0-5.1,0.3-4.9-2.7c0.2-2.4,3-0.9,4.6-1.3c2.2-0.6,6.2,1.3,6.1-2.1c0-3.3-4-1.5-6.2-1.9
		c-1.4-0.3-3,0.4-4.5-0.7c2.6-4.9,1.3-9.3-1.4-13.8c-1.7-2.8-2.8-5.9-0.9-9.3c0.9-1.6,1.7-3.5,1.6-5.2c-0.5-6.1,3.1-8,8-10.1
		c12.9-5.4,22.7,0.3,32.2,7.7c3,2.3,5.5,5.1,9,7c2.3,1.3,8,3,1.5,6.8c-0.6,0.4-0.7,1.3-0.1,1.7c1.3,1,3-0.3,4.5,1
		c2,1.7,2.5-0.1,3.2-1.9C308.4,430.7,310,431.2,311.4,432.7z"/>
	<path class="st24" d="M277.2,473.5c3.1-2.1,3.1-5.7,4.3-8.7c0.7-1.9,0.9-4.6,4-4.1c3.8,0.7,5.4-1.5,6.1-4.9
		c3.2,4.4,9.3,6.2,13.9,4.8c1.8-0.6,2.1-2,2.5-3.4c2.4-8.5,4.8-16.9,7.2-25.4c0.4-1.6,0.9-3.1,2.2-4.6c0.9,9.1,2,18.1,2.7,27.2
		c1,13.1,3.4,26.1,3.1,39.3c0,1.7,0.6,4.1,2.1,4.4c2.1,0.3,2.4-2.1,2.9-3.9c2.6-9.7,5.2-19.3,7.8-29c0.6-2.3,1.4-3.5,4.2-3.8
		c2.7-0.3,5.6-0.5,7.5-3.6c1.8-2.9,2.7,0.2,3.6,1.5c0.5,2,0.2,3.9-0.4,5.9c-1.3,5.1-3.2,10.1-3.7,15.5c-0.1,1-0.3,2-0.8,2.9
		c-1.1,1.9-2.4,4.4-4.8,3.4c-2.6-1.1-2.2-4.1-0.8-6c2.1-3,1.1-6,0.5-9c0.7,3.5,1.8,6.8-1.7,9.8c-1.7,1.5,0,3.8,0.9,5.5
		c3.4,6.6,2.1,10.2-4.9,12.4c-4.1,1.3-8.4,2-11.6,5.2c-3.6-3.7-9-2.3-13.1-5c-3.1-2.1-6.5-3.9-10.4-4.3c-0.8-0.1-1.8-0.5-2.2-1.1
		c-4.9-6.9-12.4-10-19.3-14C276.3,478.3,278,475.6,277.2,473.5z"/>
	<path class="st25" d="M324.2,504.5c1.7-6.2,7.7-5,12-6.7c5-2,6.7-5.2,4-9.7c-1.9-3.3-5.6-6.4,0.5-9.5c1.2-0.6,0.9-3.4-0.4-5
		c-1.5-1.8-1-3.6-0.8-5.7c3.5,2.5,4.9,8.1,3.2,11.9c-0.1,0.3-0.4,0.5-0.6,0.8c-1.1,1.8-1.8,4.4,0.1,5.1c2.2,0.8,3.4-2.1,3.6-3.8
		c0.4-4,1.4-7.8,2.4-11.6c1.1-3.7,2.1-7.5,3.2-11.2c0.6,0.5,1.2,1,1.9,1.6c5.2,0.6,5.3,0.6,4.3,6.1c-1,5.6-1,11.2-1.5,16.8
		c-0.5,5.5,2.9,10.4,8.2,12.3c2.6,1,5.4,1.7,7.8,3.2c0.4,0.4,0.5,0.9,0.1,1.4c-1.8,3.8-4.1,5.5-7.7,2c-0.9-0.9-2.4-1.4-2.9-0.1
		c-2.6,7-9.4,5.5-14.5,6.9c-4,1.1-8.6,0.6-12.7-0.9c-2.2-0.8-4.5-1-6.8-0.8C325.4,507.6,324,507,324.2,504.5z"/>
	<path class="st26" d="M394.3,482.6c-1.3,3.9-4,6.7-7.4,8.9c-1.5,0.9-2.5,2.6-3.7,4c-0.3,0-0.6,0-1,0c-2.1,1.4-4.4,2.6-7.1,2.5
		c-4.7-1.5-9.6-2.2-12.7-6.9c-3-4.6-3.6-9.3-1.1-14c2.8-5.4,6.7-10.1,9.3-15.6c1.6-0.6,3.5-1.1,4.6,0.3c1.2,1.5-0.2,3.1-0.8,4.6
		c-1.5,3.4-3.9,6.1-5.9,9.2c-3,4.6-1.2,9.2,3.4,12.1c6.2,4,11.3,2,16.4-1.9c1.7-1.3,2.9-3.3,5.3-3.6
		C393.9,482.4,394.1,482.5,394.3,482.6z"/>
	<path class="st7" d="M375.3,497.5c2.2-0.9,4.3-2.7,7-2c-0.4,5.5-3.7,7.1-10,5c0-0.3,0-0.7,0-1C372.2,497.2,373.2,496.5,375.3,497.5
		z"/>
	<path class="st27" d="M360.3,409.5c-0.7-0.3-1.3-0.7-2-1c10-9.7,21.2-17.1,35.8-12.8c9.4,2.8,18,7.9,22.8,17.4
		c0.8,1.5,0.3,3.7,1,5.3c1.7,4.1,0.8,9.5,5.9,12.1c0.4,0.2,3.9,4.7-1.5,5c-4.8,1.2-4.7,6.2-5.4,9.1c-0.8,3.2-2.4,6.3-4.1,7.7
		c-6.2,5-6.7,12.5-9.8,18.9c-1.3,2.6-2.1,5.6-4.7,7.3c-1.3-1.6-0.2-3.3-0.2-4.9c0.2-0.9,0.5-1.8,1.1-2.6c1.9-2.1,2.7-4.6,3.2-7.3
		c0.1-0.5,0.2-0.9,0.4-1.4c2.9-9.2,4-18.8,6.8-28.1c0.6-2.1,0.5-4.3,0.1-6.4c-1.2-6.5-4-12.6-6-18.9c-1.2-3.6-3.8-6.1-7.2-7.9
		c-0.7-0.2-1.4-0.4-2.1-0.7c-0.7-0.3-1.4-0.5-2-0.8c-8.7-3.8-16.5,0.3-21.6,7.1c-1.2,1.6-2,3.5-4.2,4
		C364.3,410.9,362.1,411.2,360.3,409.5z"/>
	<path class="st28" d="M443.2,627.5c4.3-4.5,9.7-7.6,14.3-11.7c3.8-3,6.7-1.4,9.8,1.5c8.1,7.4,15.3,15.6,22.5,23.9
		c4.7,5.4,3.9,12.4-1.7,17c-5.5,4.6-14.2,4.1-18.5-0.9c-4.2-4.9-8.3-9.9-12.5-14.8c5.6-2.7,10.5-6.2,14.8-10.6
		c2.6-2.7,3.4-4.7,0.1-7.2c-1.8-1.4-3.3-3.2-5-4.9c-0.5-0.5-0.7,0.6-0.3,0c0.1-0.1,0.2-0.1,0.4,0.2c9.1,9.5,10.1,6.7-0.3,16.6
		c-1.3,1.3-3,2.2-4.5,3.2c-2.9,1.9-5.3,1.8-7.8-1.2c-2.9-3.5-5.7-7.4-10.4-9C443.9,628.8,443.5,628.2,443.2,627.5z"/>
	<path class="st29" d="M416.2,651.6c0.2-0.9,0.4-1.8,1.4-2c3.7-0.2,5.4-5,9.6-4.2c6.4,3.2,13.1,5.1,20.3,4.7
		c3.3-0.2,6.6-0.1,9.3-2.6c0.6-0.6,1.5-0.7,2.2,0c3,3.1,6,6.2,8.3,9.8c-2.7,3.6-6.5,3.5-10.3,3c-8.7-1.1-17.4-2.9-26.3-2.5
		c-4.3,0.2-8.5,1.4-12.9,1c-2.6-0.2-5.1-0.4-5.9-3.4C411.4,652.1,414.5,652.6,416.2,651.6z"/>
	<path class="st30" d="M459.1,647.6c-6.2,6.3-13.9,4.2-21.1,3.1c-3.8-0.6-8.9-0.1-10.8-5.2c8.4-1.7,16.9-3.3,25.1-5.9
		C454.5,642.2,456.8,644.9,459.1,647.6z"/>
	<path class="st31" d="M444.3,629.5c1.8-0.5,3.3-0.5,4.7,1.2c1.9,2.3,4.5,4.1,6.1,6.5c2.6,3.9,5.1,2.9,8.2,0.8
		c11.7-8,11.8-8.8,2.3-18.5c-0.7-0.7-2.2-1.1-1.6-3.8c4,4.1,7.7,7.7,11.1,11.4c0.9,0.9,0.4,2.3-0.5,3.2c-5.2,5-9.8,10.8-17.5,12.2
		c-1.5-1.3-3.1-2.6-4.6-3.9C449.8,635.5,447,632.5,444.3,629.5z"/>
	<path class="st32" d="M295.4,622.8c-7.5,10.3-18.3,14.8-30.1,17.8c-1.2-1.5-2.6-0.8-4.1-0.5c-7.6,1.3-15.2,2.6-23,1.5
		c-1.2-0.2-2.4,0-3.3-0.9c-0.5-0.6-1.2-1.3-1.2-2c0-1,1.1-1.2,1.9-1c6.1,1.1,11.6-1.6,17.5-2.3c3.5-0.4,6.8-2.8,10.1-4.3
		c3.2-1.5,6.4-2.8,10-2.4c-0.1,2.6-2.5,2.7-4.1,3.8c-1.6,1.1-3.8,1.4-5.3,3.8c7.4,0.1,12.5-3.8,17.8-7.4c4.5-2.2,7.8-6.3,12.8-7.6
		C295.2,621.4,295.8,621.8,295.4,622.8z"/>
	<path class="st33" d="M294.2,621.5c-3.8,3-7.6,5.9-12,8c-1.7,0.9-3.8,1.8-4.8-0.2c-1.2-2.2,1.7-2.7,2.7-4
		c7.2-6.5,13.2-13.9,14.9-23.9c1.1-0.8,1.5-2.8,3.5-1.8c1.3,0.7,1.7,2,1.6,3.4c-0.2,2.1,0.4,4.3-0.1,6.4
		C298.8,613.8,298.4,618.5,294.2,621.5z"/>
	<path class="st34" d="M294.2,621.5c2.2-3.8,3.4-8,5-12.1c1.5-10.8,3.4-21.5,2.4-33c-1.4,6.2-1.9,12-3.1,17.8
		c-0.4,2.1-0.1,4.8-3.2,5.4c1.4-9.7,2.7-19.3,4.2-29c0.2-1.3,1.2-2.6,2.7-2.6c1.6,0,1.3,1.7,1.7,2.7c0.9,2.2,0.6,5,2.6,6.9
		c-0.6,14.2-2,28.1-8.1,41.2c-0.7,1.5-1.4,3-2.8,4C295,622.3,294.6,621.9,294.2,621.5z"/>
	<path class="st35" d="M295.3,599.5c3.1-5.5,2.7-11.8,3.8-17.7c0.6-3.1,1.4-6,3.3-8.7c1.5,12.3,1.2,24.4-3.2,36.3
		c0-1.9-0.3-3.9-0.1-5.7c0.5-4.2-1.4-3.9-4-2.2C295.2,600.8,295.2,600.2,295.3,599.5z"/>
	<path class="st36" d="M280.2,625.3c-0.8,1.2-1.5,2.4-2.3,3.6c1.5,1,3,0.3,4.4,0.6c-5.2,4.3-10.7,7.9-17.8,8c-0.9,0-2.2,0.3-2.6-0.8
		c-0.6-1.4,0.7-2.1,1.6-2.7c3.2-1.9,6.6-3.7,9.8-5.5C276,628.3,277.2,624.9,280.2,625.3z"/>
	<path class="st37" d="M107.2,663.5c2.5-3.1,4.9-6.3,8.1-8.8c0.5,0,0.9-0.3,1.3-0.6c1.5-1.3,2.5-4,5.2-3c2.8,1.1,1,3.4,1.2,5.2
		c0.1,0.8,0.3,1.7,0.6,2.4c5.5,11,11.2,21.9,20,30.9c6.3,6.4,12.2,13.2,17.7,20.3c7.9,10,17.7,17.5,27.5,25.2
		c12.2,9.5,26,16.8,38.8,25.3c9.9,6.6,17.2,15.6,23.9,25.1c1.2,1.7,3.6,4.4,0.7,7c-7-5.1-14.7-7.4-23.3-6.3c-2.9,0.4-2.2-1.5-2.6-3
		c-2.9-12.8-13.9-19.9-25.5-15.1c-6.3,2.6-12,2-17.7,0.3c-9.3-2.7-16.6-8.7-22-16.8c0.7-3,1.2-3.4,3.4-1.6c2.4,2.1,5.3,2.6,8.2,3.5
		c4.2,1.3,7-1.5,5.7-5.7c-1.4-4.7-3.5-9.1-6.9-12.6c-6.4-6.7-13-13.3-19.9-19.6c-11-9.9-20.8-20.9-28.1-34c-2.5-4.5-5.1-9-9-12.5
		c-0.7-0.7-1.6-1.4-1.6-2.4c0-1.7,0.1-2.3-1.9-1.1C109.3,666.6,107.4,666,107.2,663.5z"/>
	<path class="st38" d="M107.2,663.5c1.5,1,3,3.6,4.2-0.2c0.3-0.8,0.9-1.5,1.9-1c0.8,0.5,2.1,1.6,1.4,2.3c-2.4,2.7,0.5,3.3,1.6,4.5
		c4.9,5.1,7.8,11.5,11.3,17.5c1.5,2.6,3.4,4.8,5.2,7.2c10.3,13.8,23.7,24.4,35.7,36.5c4.7,4.7,8.3,9.9,10.6,16
		c0.9,2.3,2.3,4.9,0,6.9c-2.2,1.9-4.4,3-8,1.3c-2.6-1.3-5.6-1.7-7.8-4.1c-1.3-1.4-1.9-0.1-2.2,1.2c-1-1.3-2.3-2.5-2.9-4
		c-4.8-10.9-13.6-18.2-22.4-25.5c-13.9-11.6-28-23-42-34.5c-2-1.6-3.9-3.1-2.7-6.1c4.7-3.9,7.6-9.4,11.9-13.8
		C104.5,666.3,105.5,664.6,107.2,663.5z"/>
	<path class="st39" d="M252.2,792.5c0.5-4.7-2.6-7.7-5-11.1c-8.2-11.6-19.2-19.9-31.2-27c-17.5-10.4-35.2-21-48.9-36.1
		c-12.7-14-26.5-27.4-36.4-43.8c-3-4.9-5.6-10.1-8.3-15.3c-0.6-1.1-0.6-2.6-1.1-3.8c-0.4-1.3,2.9-2.6,0.1-3.5c-2.1-0.7-3,1.5-4,3
		c-0.5,0.7,0,2.3-1.5,2c-0.9-0.2-0.6-1.4-0.6-2.2c14.6-16.1,30.3-31,47.9-43.9c0.7-0.5,1.4-0.9,2.1-1.3c1.1-0.7,2.5-1.6,3.4,0
		c0.8,1.5-0.9,2-1.7,2.5c-9.6,6.1-17.5,14.2-26,21.5c-1.7,1.4-3,3.1-3.9,5.1c-3.3,4.4-1.3,8.5,0.9,12.3c2.4,4.2,2.6,4.2-1.7,5.3
		c-1.7,0.4-2.2,1.4-2.4,2.7c-0.5,3.8-0.7,7.6,1.1,11.2c1.8,3.6,3.7,7.2,6.5,10c9.7,9.8,18.4,20.6,27.7,30.8
		c9.2,10.1,21.1,16.6,32.7,23.5c16.9,10,33.6,20.5,46.2,35.9c7.3,9,13.8,18.6,19.4,28.9c5.9,11,11.2,22.8,21.7,30.8
		c1.7,1.3,3.1,4.3,5.8,2.7c3.1-1.9,1.2-4.8,0.3-7.2c-3.2-8.2-7-16.1-12.1-23.4c-2.1-2.9-3.5-6.2-0.8-9.6
		c5.7,7.2,12.2,13.9,15.5,22.7c2.7,7.1,4.3,14.6,5.6,22.2c-0.9,3.5-5.6,5.9-9.4,4.5c-3.6-1.3-6.9-3.3-9.5-6.3
		c-7.5-8.9-14.3-18.4-19.9-28.7c-2.8-5.2-5.7-10.5-11.4-13.4C252.9,793.2,252.5,792.9,252.2,792.5z"/>
	<path class="st40" d="M305.3,879.5c-5.1,2.1-10.4,3.4-16,2.9c-2.9-2-3.7-4.2-3.4-8.1c0.7-8.3-1.3-15.9-10.1-19.7
		c-2.3-1-3.6-2-2.7-5.1c0.8-2.8,0.3-5.9,0.4-8.9c2.7-1.3,4.7,0.2,6.7,1.7c2,1.4,3.7,3.2,5.9,4.5c1.6,1.1,3.4,2.2,4.6,3.7
		c4.3,5.7,9.5,6.5,15.6,3.2C307.1,862.2,310.8,871,305.3,879.5z"/>
	<path class="st41" d="M227.2,813.6c-6.2-7.5-6.8-13.9-1.9-23.1c10,0.5,23.6,11.3,26.6,21c0.6,2-0.6,3.9,0.2,5.9
		c-2.3,6.7-9.3,8.5-16,4.3c0.6-1.2,1.7-1.6,2.9-1.6c2.8-0.4,1.1-1.2,0.2-1.9c-6-3.9-9.6-9.3-10.1-16.5c-0.1-0.7,0.1-2-1-1.8
		c-1.3,0.2-0.9,1.5-1.1,2.4C225.5,806.1,229,809.8,227.2,813.6z"/>
	<path class="st37" d="M253.2,793.6c5.6-1.9,6.2,3.5,8.1,6.1c4.9,7,8.6,14.9,13.7,21.8c4.8,6.4,8.8,13.8,16.2,17.8
		c2.7,1.5,6,4.7,8.7-0.4c0.7-1.2,3.2,1.2,3.4-1.5c1.5,3.2,1.1,6.7,2,10c0.3,2.1-1.4,2.1-2.6,2.1c-4.6-0.3-9.2-0.6-13.2-3.4
		c-7-4.9-12-11.8-17.8-17.8c-5.9-8.3-9.8-17.9-16.2-25.8C255.2,799.4,254.6,796.3,253.2,793.6z"/>
	<path class="st42" d="M249.2,824.4c6.2-2.9,10.8-2.5,15.2,2.2c5.9,6.3,9.3,13.8,7.1,22.7c-1.2,5.1-4.8,6.8-10.1,5.2
		c0.1-0.2,0.1-0.4,0.2-0.6c0.4-0.9,1.9-1.7,0-2.6c-1.3-0.6-2.8-1.2-2.6-3.1c2.6-2.4,1.7-4.7-0.2-6.8c-1.3-1.4-2.1-2.8-1.9-4.8
		c0.6-5.1-1.6-8.6-6.5-10.2C249.4,825.9,248.8,825.4,249.2,824.4z"/>
	<path class="st43" d="M200,779.7c-1.3-0.4-1.9,1.1-3.9,1.2c1.9-4.3-0.2-10,6.2-11.7c6.7-1.8,16.5,0.6,18.9,5.4c2.7,5.3,6,11,1.1,17
		c-2.5,1.2-2.8-0.8-3.3-2.3c-2-5.2-6.4-7.8-11-10.3C205.1,777.4,202.7,779.9,200,779.7z"/>
	<path class="st44" d="M252,817.4c-0.8-9.5-7.1-16-14.1-20.7c-2.8-1.9-6.5-8-12.2-4c-0.3,0.2-0.4-1.4-0.5-2.2c0.9-3,3.5-2.7,5.7-2.9
		c6.1-0.3,11.8,1.2,17.2,3.9c2.9,1.5,4.6,4,5.2,7.4C254.2,805.2,255.1,811.4,252,817.4z"/>
	<path class="st45" d="M266.1,867.7c-1.6-2.7-0.9-5.5-0.4-8.2c0.8-3.9,5.5-5.6,9-3.7c6,3.2,9.7,7.7,9.6,14.9
		c-0.1,7.8-2.2,9.3-10.2,6.9c0.1-0.6,0.4-1,0.8-1.4c-3.6-3.5-7-7.1-7.2-12.6c0,0,0,0.1,0,0.1c0,0.3,0,0.6,0,1
		C267.5,865.9,267.2,867,266.1,867.7z"/>
	<path class="st46" d="M249.2,824.4c6.7,1.9,10.4,5.6,8.7,13.2c-0.5,2.5,2.9,3.2,3.7,5.7c1.1,3.2,1.1,4.7-2.4,5.4
		c-5.9,0.3-11.3-4.9-12.1-11.6c-0.2-1.4,0.3-2.9-0.5-4.2c0,0-0.3,0-0.4,0.1c-0.2,0.3-0.3,0.6-0.4,0.9c-0.5,1.1-1.3,1.8-2.6,1.8
		C240.5,829.7,241.9,827.1,249.2,824.4z"/>
	<path class="st47" d="M272.2,827.5c6.5,5.5,10.9,13.2,18.3,17.7c4.5,2.8,9.4,4.1,14.7,2.2c1.5,1.8,0.7,4,1,6
		c-3.8,4.6-11.3,4.9-14.6-0.1c-1.8-2.6-4.3-3.9-6.4-5.9c-3.9-5.1-9-8.8-13.7-13c-0.1-0.6-0.3-1.2-0.4-1.8
		C270.6,830.8,269.1,828.6,272.2,827.5z"/>
	<path class="st48" d="M200,779.7c2.8-3.3,6.3-3.5,9.7-1.4c4.7,2.9,9.9,5.5,10.8,12c0.1,1,1.1,1.1,1.9,1.3
		c-2.3,4.6-4.9,5.6-11.2,4.1c-0.4-1,0.1-1.3,1-1.2c2.3,2,2.5-0.6,2.8-1.6c0.4-1.4-1.1-1.2-2-1.4C206.1,790.4,201.5,786.7,200,779.7z
		"/>
	<path class="st49" d="M272.2,827.5c-1.7,1.5-0.7,3.5-1.1,5.2c-2.3-2.2-3.2-5.4-5.7-7.5c-3.5-2.9-7.1-5.4-12.4-4.7
		c2.5-6.3,3.4-12.1,2.4-18.1c3.2,0.4,4.1,3.3,5.4,5.4C265,814.2,268.5,820.9,272.2,827.5z"/>
	<path class="st50" d="M227.2,813.6c-0.4-4-3.5-7.8-0.9-12.1c1.5-2.2,2.6-1.2,2.9,0.7c1.2,6.8,4.4,12.2,10.3,16.1
		c0.8,0.5,2,1.7-0.2,2.3c-1.1,0.4-2.1,0.8-3.2,1.2c-0.9-0.1-1.8-0.2-2.7-0.3c-1.7-2.3-3.4-4.5-5.8-6.1
		C227.4,814.7,227.3,814.1,227.2,813.6z"/>
	<path class="st51" d="M243.2,835.6c0.7-0.7,1.4-1.4,2.1-2.1c1.4-0.2,1.8,0.7,1.9,1.7c0.3,7.7,5.4,11.6,11.7,14.6
		c1.9,0.9,4.4,1.7,2.4,4.7c0,0,0.1,0,0.1,0C250,853.2,245.8,845.1,243.2,835.6z"/>
	<path class="st52" d="M212.2,794.5c-0.3,0.4-0.7,0.8-1,1.2c-6.7-1.4-12-4.5-13.7-11.8c0.9-0.8,1.6-0.3,2.1,0.4
		c2.8,4.4,6.6,7.4,11.7,8.7C212,793.2,212.2,793.8,212.2,794.5z"/>
	<path class="st49" d="M271.6,834.5c2.2,0,3.9-0.1,5.1,2.9c1.2,2.8,5.6,3.7,7.1,7.1c0.4,1,1.4,1.8,1.4,3c-3.9-2.3-6.7-6.6-11.8-7
		C272.8,838.5,272.2,836.5,271.6,834.5z"/>
	<path class="st53" d="M266.1,867.7c0.2-1.1-0.1-2.3,0.9-3.1c2.2,4.4,4.7,8.5,8.2,12.1c-0.4,0.3-0.7,0.6-1.1,1
		C269.9,875.5,266.7,872.7,266.1,867.7z"/>
	<path class="st26" d="M399.3,473.5c-0.3,1.7-0.7,3.3-1,5c-1.9,0.8-1.6,3.7-3.9,4.1c0,0-0.1-0.1-0.1-0.1c-0.7-2,0-3.8,1.1-5.5
		C396.6,475.8,396.8,473.3,399.3,473.5z"/>
	<path class="st54" d="M275.1,669.6c1.1,0.6,2.1,1.1,3.2,1.7c1.7,2.2,1.3,4-1,5.3c-3,1.7-4.2,4.5-5.5,7.4
		c-3.7,8.7-7.3,17.5-10.7,26.3c-2.9,7.5-4,14.6-0.2,22c-0.9,2.6-2.4,1.7-3.8,0.5c-1.1-1-2-2.3-4.1-2.5c1.4,3.7-0.3,7.3,1.1,11
		c1.4,3.7,3.2,6.7,6.3,9.3c3.9,3.4,6.8,7.8,8.2,12.9c1.2,4.1,1.5,8.5,4.2,12.1c0.9,1.2,1.2,2.8-0.5,3.9l0,0
		c-4.2,2.9-8.2,1.4-11.4-1.4c-4.6-4-9-8.3-12.6-13.4c-5.9-8.3-14.6-13.5-22.7-19.2c-12.6-8.8-25.5-16.8-39.4-23.4
		c-3-1.4-5.6-4-7.1-6.9c-2.8-5.7-7.6-10.1-10.3-15.9c-0.6-1.2-1.3-2.4-2.4-3.2c-6.5-5-10.8-12-17.4-17c-5.4-4.1-7.6-10.8-9.5-17.2
		c-0.8-2.7,1.6-5.3,4.5-5.2c1.5,0.1,3,0.1,4.4,0.7c6.9,1.3,12-1.4,16.7-6.4c4.8-5.1,9.6-10.4,16-13.7c4.7,3.2,10,5,15.5,6
		c4.3,0.7,8.5,1.4,12.5,3.3c2.3,2.3,5,4.3,6.8,6.9c2.1,3.1,4.6,4.6,8.2,4.2c4.1,3.1,9.2,2.3,13.8,3.6c9.5,2.4,19,4.5,28.5,6.9
		C269.4,668.7,271.9,671.3,275.1,669.6z"/>
	<path class="st55" d="M148.6,657.4c-1.7,0.1-3.4-0.1-5,0.3c-2.5,0.7-4.1,2.3-2.7,5.2c3.4,6.9,6.7,13.2,12.9,18.8
		c6.2,5.5,13.3,11.1,17.3,19.3c2.5,5,6.4,9.5,9.5,14.4c3.6,5.7,10.1,7.8,15.8,10.8c17.8,9.4,34.5,20.3,49.4,33.8
		c4.7,4.3,8,10.1,12.6,14.6c4,4,8.1,6.1,13.7,5c3,4.6,7.3,8.2,9.9,13.1c-1.8,7.8,4.5,12.3,7.5,18.1c3.2,6.1,5.5,12.4,8.2,18.7
		c0.8,1.9-0.8,3.8-2.4,5.1c-2,1.6-3.5,0-4.8-1.1c-7.8-6.6-13.6-14.6-18.8-23.5c-6.5-11.2-11.8-23.1-20.5-33
		c-3.5-3.9-6.5-8.2-10.2-12.1c-15.4-16-35.1-25.9-53.5-37.6c-9.3-5.9-17.9-12.5-24.7-21.3c-5.9-7.6-12.2-14.9-19.3-21.4
		c-4.2-3.9-7.1-8.7-9.9-13.7c-2.4-4.2-2-8.7-1.2-13.1c0.4-2,0.6-5.4,4.3-2.6c0.5,0.4,1.4,0.3,1.7-0.4c0.5-1.3-0.4-2.2-1.2-3
		c-3.4-3.6-3.4-7.9-2-12.3c0.1-0.5,1-0.7,1.6-1c-2.2,6.6,1.6,14.9,7.9,17.3C146.2,656.3,147.4,656.9,148.6,657.4z"/>
	<path class="st56" d="M158.1,624.5c4.6,5.8,8.9,12,14.3,14.4c-4.1,4.8-8.2,10-12.8,14.8c-3.7,3.7-13.4,2.4-17.3-1.9
		c-5-5.5-5.2-12.1-0.2-16.8c4.6-4.3,9.4-8.3,14.2-12.5C158.3,621.9,157.4,623.9,158.1,624.5z"/>
	<path class="st57" d="M175.3,611.5c4.9,4.7,9.8,9.4,14.7,14c-0.2,0.7-0.5,1.4-0.7,2c-5.2-0.9-7.4,3.7-10.6,6.1
		c-5.7,4.3-6,4.7-10.8-0.4c-2.8-3-7.5-5.6-7.3-9.6c0.2-3.6,6-4.7,8.1-8.2c0.1-1.5,1.4-2.4,1.8-3.8
		C172,610.4,173.6,610.5,175.3,611.5z"/>
	<path class="st58" d="M170.4,611.7c1.6,2.3-0.2,3-1.8,3.8c-4.6,1.7-8.6,4.2-10.6,9c-0.6-0.7-1.2-1.3-1.8-2
		C160.5,618.3,165.2,614.6,170.4,611.7z"/>
	<path class="st59" d="M272.3,779.6c0.1-0.3,0.4-0.8,0.3-0.9c-5.1-7-3.7-16.7-9.8-23.4c-1.5-1.7-3-3.4-4.7-5
		c-4.4-3.9-6.6-8.9-5.6-15c0.1-0.7,0.3-1.2-0.2-1.8c-1.4-1.6-1.7-4.3-0.2-4.7c1.6-0.5,4.4,0,5.4,2.7c0.5,1.2,1.2,2.6,2.9,1
		c0.9-0.3,1.3,0.3,1.6,1c0.3,2.9-1,5.9,0.5,8.8c1.2,2.2,2.6,4,5.3,3.8c3.8-0.3,7.4-1.7,10.8-3.5c0.9-0.5,1.8-1.3,1.6-2.3
		c-0.3-1.5-1.7-1.3-2.8-1.2c-0.7,0.1-1.3,0.2-2,0.2c-1.2,0-2.6,0.1-2.8-1.3c-0.2-1.3,1.2-1.8,2.2-2.4c3.8-1,7.5-2.6,11.5-2.6
		c4.4-0.1,9.3,0.1,12.7-2.7c4.2-3.4,8.6-6.2,13.7-7.9c11.2-3.8,22.5-7,34.5-4.3c2.5,0.5,4.8,1.2,7.1,2.2c6.2,2.6,7.2,2.4,11.7-2.1
		c4.5,2.7,7.8,6.5,10.1,11.2c0,6.2-2.5,8.8-8.5,8.9c-4.8,0-6.2,1.7-5.2,6.4c0.4,1.8,1,3.5,2.2,5c5.9,7.9,9.3,17.2,14.5,25.4
		c7,11.1,10.8,23.5,16.6,35c3,5.9,5.1,12.1,7.6,18.1c-0.1,1.8,0.4,3.7-0.4,5.5c0,0.6,0,1.2-0.1,1.9c-4.2-4.3-7.2-9.5-10.4-14.5
		c-5-8-7.3-17.1-11.3-25.5c-1.4-3-3.2-5.8-4.6-8.8c-2.6-5.7-2.6-5.7-7.5-2.3c-9.6-19.1-24.1-34.6-36.8-51.5
		c-0.9-1.2-1.7-4.1-4.5-2.4c-2.1,1-4.2,0.6-6.3,0c-2.7-0.7-5,0.1-6.6,2.3c-1.9,2.4-2.4,5.3-0.8,7.9c2.1,3.4,4.4,6.7,7.8,8.9
		c0.8,0.5,1.8,0.9,2.5,1.6c7.9,9,15.6,18,22.4,27.8c5.4,7.7,4.6,17.2,7.9,25.5c1.7,4.2,3.5,8.3,5.8,12.1c0.7,1.2,1.5,3,3.3,2.4
		c1.4-0.4,2.1-2.2,1.8-3.3c-1.3-6.8,0.9-13.8-1.4-20.7c-2.4-7.2-6.2-13.5-10-19.9c-0.3-0.6-0.7-1.1-1-1.7c-0.6-1.5-0.8-3,0.5-4.1
		c1.4-1.2,2.8-0.5,3.9,0.7c0.6,0.6,1.2,1.2,1.9,1.5c4.6,6.5,8.7,13.1,9.2,21.4c0.5,6.9,1.6,13.7,2.5,20.6c-1.2,2.7-0.9,5.4,0.3,8
		l0,0c0.7,1.2,0.3,2.6,0.4,3.9c0.1,3,0.5,5.9-3.5,7.2c-3.8,1.2-6.8,0.8-9.7-1.8c-1.1-1-2-2.3-2.7-3.6c-4.6-9.9-9.5-19.8-12.2-30.5
		c-0.8-3.3-1.9-6.3-3.7-9.2c-6.7-10.5-13.1-21.2-22.2-30c-2.8-2.7-5.9-4-9.9-4c0.5,2.8,5.1,3.6,3.2,7.2c-4.2-2.4-7-7.5-12.8-6.8
		c-0.2,0-0.4,0-0.5-0.1c-6.9-7.6-14.2-3.2-21.3-0.6c-3.2,1.2-3.6,3.3-1,5.6c4.1,3.6,7.6,7.8,11.9,11.4c8.6,7.1,15.3,16,21.9,24.9
		c4.5,6.1,9,12,12.8,18.7c0.7-4.6-0.9-8.5-2.8-12.3c-1.7-3.2-3.4-6.4-5.1-9.7c-1.4-2.6-2.1-5.4,1-7.5c1.9-0.2,3.3,0.8,4.1,2.3
		c2.7,5.1,6.4,9.7,7.2,15.7c0.2,1.2,0.5,2.3,1.2,3.3c4.8,6.5,3.7,13.9,3.5,21.2c-0.1,2.1-0.4,4.7-3,5.2c-2.3,0.4-3.6-1.6-4.4-3.4
		c-6-11.8-14.4-21.9-21.7-32.7c-5.4-7.9-12-15.1-19.9-20.7c-1.3-0.9-2.7-2.5-4.4-1.3c-1.5,1.1-1,2.9-0.9,4.6
		c0.1,1.1,1.9,2.8-0.8,3.3C274.8,780.9,274.1,779.3,272.3,779.6z"/>
	<path class="st60" d="M463.3,745.6c-12.2,14.2-20.9,31-32.2,45.8c-8,6.8-13.9,15.6-22.2,22c-1.5,1.2-2.8,2.9-5,3.5
		c-1.4-3.2,0.3-6.7-1.5-9.7c-1.2-0.9-1.5-2.2-1.4-3.5c0.2-5.8-1-11.6-1-17.4c-0.1-12.3-1.2-24.3-7.9-35c-0.4-0.6-0.4-1.3-0.4-1.9
		c0.3-1.6,1.4-2.4,2.9-2c3.7,1,4.8-1.6,5.6-4.1c1.7-5.3,2.3-10.7,1.6-16.2c-0.6-4.9-3.4-6.3-8.5-5c-3.1,0.8-6.6,2.1-8.1-2.6
		c6.5-2.5,13.1-5,19.9-6.5c7.1,2.3,7.1,2.3,6.8,10.2c-0.2,6.8-1.6,13.6-1.3,20.4c0.2,4.9,1.1,9.6,4.5,13.5c5.6,6.5,11.9,7,18.2,1.2
		c6.6-6.1,13.9-11.4,21.6-16C459.6,739.1,462.3,740.3,463.3,745.6z"/>
	<path class="st61" d="M402.1,827.4c-2.5-2.1-2.1-5.6-3.6-7.9c-8.6-13.3-10.9-29.5-20.5-42.6c-4.6-6.3-7.5-14.4-11.3-21.6
		c-1.8-3.3-5-5.6-5.9-9.6c-1.7-7,0-9.3,7.1-8.5c3.9,0.4,6.5-2.6,5.9-6.7c-0.1-0.8,0.7-1,1.3-1.1c1.7,0.1,2.8,1.2,3.6,2.4
		c4.3,6.3,9.3,12,13.3,18.6c4.7,7.7,7.6,15.9,8,24.8c0.5,11.7,2.2,23.4,1.5,35.2c0.3,4.3,0.6,8.7,0.8,13
		C402.9,824.8,403.1,826.1,402.1,827.4z"/>
	<path class="st62" d="M359.2,771.6c-2.2,1-3.3-3.8-5.3-1.4c-2.1,2.5,1.2,4,2.1,5.9c4.6,9,11.3,17.5,10.1,28.4
		c-0.5,4.8,2.5,9.6-0.4,14.3c-0.7,1.1-0.5,2.7-2.4,2.7c-1.5,0-2.4-0.9-3.1-2.1c-5.1-8.1-8.7-16.6-10-26.2c-1.3-9.1-6-16.7-12.1-23.2
		c-3.5-3.8-6.8-7.7-9.6-12.1c-1.6-2.6-3.5-5.1-6.2-6.3c-4.7-2-6.8-6.2-9.7-9.8c-2.6-3.3-1.7-7.2,0.8-10.1c2.1-2.4,4.9-4.5,8.7-2.1
		c1.4,0.9,3.6-0.5,5.2,0.9c9.8,10,17.2,21.8,25.8,32.7C355.2,765.9,357.2,768.8,359.2,771.6z"/>
	<path class="st63" d="M401.5,810.4c-0.9-13.1-1.6-26.1-2.8-39.2c-0.8-9.1-4.8-17.1-10.3-24.4c-4.4-5.8-8.9-11.6-13.3-17.4
		c-3-3.6-6-7.3-9.1-10.9c-5.2-5.7-11.1-10.7-17.9-14.5c-8.8-7-19.2-6.7-29.5-6.3c-2.6,0.1-4.3,1.8-5.8,3.5
		c-3.4,3.9-6.6,7.9-9.6,12.2c-4,5.7-9,10.7-12.1,17c-1,1.9-2.6,3-4.8,2.8c-3.8,1.9-7.9,2.5-12,3.4c-4.9,1.1-9.9,2.7-13-3.3
		c-0.3-0.3-0.7-0.7-1-1c-4.3-5.9-4.2-11.8-1.8-18.6c4-11.1,8.7-21.8,13-32.8c0.7-1.9,2-3.5,3.7-4.5c2.1-1.2,3.6-2.6,3.1-5.2
		c1,0.4,2,0.8,3.1,1.2c1.1,1.7,0,3.1-1.2,3.7c-5.5,3-7.1,8.4-9.1,13.7c-0.8,2-1.7,3.9-2.5,6.4c3.6,0.1,7-0.4,9.9,1.4
		c2,1.2,3.5,2.9-0.4,3.6c-11.7-1.3-11.7-1.3-15.2,9.4c-3,9.3-3,9.3,6.8,9.4c0.7,0-0.2,0,0.5,0c1.3,0.2,2.6,0.4,3.3,1.8
		c0,0.8-0.4,1.4-1.1,1.9c-2.8,1.4-5.5-0.4-8.3-0.1c-3.7,0.4-4.3,1.5-2.5,4.8c2.3,4.1,5.9,5.6,10.4,5.2c2.3-0.2,4.6-0.8,6.8-1.3
		c6.2-0.2,8.9-4.8,11.8-9.3c7.4-10.9,15.7-21.1,24.8-30.6c1.5-1.3,2.2-4.2,5.2-2.9c0.2,2.3,1.2,3.3,3.7,3.5
		c6.4,0.6,12.9,0.7,19.3,1.9c1.7,0.3,4.8-0.4,3.3,3.4c-0.4,0.9,0.8,0.5,1.3,0.8c7.5,4,14.3,8.9,19.6,15.8c3.7,4.8,9.2,3.3,13.9,2.4
		c9.3-1.8,18.3-4.7,26.8-9c4.2-2.1,8-4.8,11.9-7.4c0.9-0.6,2.1-1.6,3-0.3c0.8,1.1,0,2.3-0.8,3.1c-2.4,2.3-5.2,4.2-7.9,6
		c-3.1,1.3-5.7,3.7-9.3,3.5c-6.6,2.1-13,5.1-19.9,6.1c-3,3.3-7.4,2-11.5,3.7c4.4,5.3,8.3,10.8,12.4,16.1c2.2,2.8,4.8,5.5,5.6,9.1
		c7.5,11.4,9.3,24.1,9.5,37.4c0.1,7.1,1,14.2,0.9,21.3C402.2,808.4,402.5,809.6,401.5,810.4z"/>
	<path class="st64" d="M340.4,852.4c-1.8-10.3-1.8-20.7-2.9-31c2.2-7.3-2.5-13-4.5-19.3c-0.6-1.9-1.4-3.7-0.7-5.8
		c0.3-1,0.7-2,1.8-2.2c1.1-0.2,2,0.5,2.4,1.4c2.3,4.8,6,8.9,8,13.7c2.8,6.6,5.8,13.1,8.2,19.8c2.7,7.3,7.7,10.7,15.5,10.7
		c1.6,0,2.9,0.4,3.9,1.7c0,2.7,0,5.3,0,8c-5.8,2.4-11.3,0.6-16.7-1.5c-7.1-2.8-7-2.9-11.8,2.9C342.8,851.8,342,852.9,340.4,852.4z"
		/>
	<path class="st65" d="M340.4,852.4c1.8-0.9,2.4-2.5,3.2-4.2c1.6-3.5,4.9-5,8.2-3.3c6.5,3.4,13.2,4.5,20.3,4.5
		c1.7,8.8-1.2,15-9.9,18.1c-5.6,1.2-10.9,1.2-16.4-0.9c-3.8-1.5-6.2-3.2-5.5-7.8C340.6,856.7,340.4,854.6,340.4,852.4z"/>
	<path class="st66" d="M372.1,841.5c-4.1-1.2-8.6,1.1-12.7-2.2c-3-2.5-5.9-4.7-7.4-8.4c-3-7.3-5.3-15-9-21.9
		c-2.5-4.7-5.6-9.3-8.4-14.6c-3.2,4.4,0,7.5,1.1,10.8c1.8,5.3,6.1,10.3,1.8,16.3c-1.4-11.3-7-21.2-10.8-31.7
		c-2.4-6.7-5.3-13.2-7.7-19.9c-0.9-2.4-2.3-4.3-3.9-6.2c-0.5-2.4,0.4-4.1,2.7-4.5c2.1-0.4,2.4,1.8,3.4,3c5.1,6.4,8.1,14.1,13.3,20.4
		c4.8,5.7,7.8,12.1,10.3,19.1c3.4,9.5,7.4,18.8,11,28.3c1.9,4.9,5.5,7.7,11.2,7.4c1.9-0.1,4.1-0.2,5.1,2.2
		C372.1,840.1,372.1,840.8,372.1,841.5z"/>
	<path class="st67" d="M368.6,784.3c1.1-1.7,2.2-3.5,3.3-5.4c5.5,3.7,6.5,9.9,9.2,15c5.1,9.6,7.7,20.4,13.7,29.6
		c2.6,3.9,6.2,7.2,7.5,12c0,0.7,0,1.3,0,2c-2.6,1.8-4.4,0.1-6-1.5c-2-2-3.7-4.2-5.3-6.6c-4.6-7.1-9.1-14.2-14.3-21.5
		c0.4,7.7,0.6,15-0.2,22.2c-0.2,1.6,0.5,3.8-2.1,4.3c-1.4-14.6-2.8-29.2-4.3-43.8C369.9,788.5,369.1,786.4,368.6,784.3z"/>
	<path class="st68" d="M372.1,839.4c-1.1-0.3-2.2-0.8-3.3-0.9c-10.4-0.8-13.7-3.6-16.5-13.6c-3.4-11.9-7.8-23.7-13.6-34.4
		c-4.3-7.9-9.9-15.5-15.5-22.8c-1.1-1.4-2.2-2.9-3.3-4.3c-0.9-1.1,1-3.4-1.5-3.6c-2.4-0.1-2.2,2.4-3.2,3.7c-1.3-1-2.6-2-3.9-3
		c-0.1-2.5-2-3.7-3.8-4.9c-1.1-0.8-2.6-1.5-1.9-3c0.8-1.8,2.5-1,3.9-0.9c7.2,0.7,11.1,6.2,15.2,11.1c6.6,7.7,11.8,16.4,17.1,25
		c1.2,2,2.1,4.1,2.6,6.4c2.7,12,7.8,23.1,13.7,33.9c2.6,4.8,7.7,5.6,11.8,2.2c2.9-2.3,0.6-5.9,1.4-8.9
		C372.8,827.4,372.2,833.4,372.1,839.4z"/>
	<path class="st69" d="M400.9,846.4c-4.3,7.5-13.4,11.5-21,9.5c-4-1.1-6.5-2.9-5.8-7.6c0.3-1.9,0.1-4,0.2-5.9c1.4-3.2,2.3-6.6,4.9-9
		c2.1-2,4.5-3.4,7-1.3C391.6,836.4,398,839.6,400.9,846.4z"/>
	<path class="st70" d="M400.9,846.4c-4.2-4-8.3-8.1-12.9-11.7c-4.2-3.3-6.5-3.3-9.5,1.2c-1.5,2.1-1.7,5-4.2,6.5c0-2.7,0-5.3,0-8
		c0.9-3.9,1.9-7.8,1.1-11.9c-0.9-4.7,2.1-9.8-1-14.4c-0.5-0.7,0.5-1.9,1.5-2.2c1.7-0.6,2.2,0.8,2.9,2c5.5,9.3,11.1,18.6,17.9,27
		c1.5,1.9,3.2,2.8,5.5,2.7C402.4,840.6,402.3,843.6,400.9,846.4z"/>
	<path class="st62" d="M371.3,821.5c-2-2.6-3.9-5.2-0.3-8C371.1,816.2,371.2,818.8,371.3,821.5z"/>
	<path class="st67" d="M402.1,827.4c0.1-1.3,0.1-2.7,0.2-4c1.2,3.4,1.2,6.8,0,10.2C402.3,831.6,402.2,829.5,402.1,827.4z"/>
	<path class="st54" d="M278.3,700.6c3.2,0,1.8-1.2,0.4-1.8c-3.8-1.6-7.8-1.5-12.6-0.8c4.8-8.3,4.9-18.6,14.5-23.3
		c0.9-0.5,0.9-1.3,0.8-2.2c1-0.6,2-1.3,3-1.9c2.9,0,4.9-1.9,7.2-3.1c10.3-5.4,21.2-9.7,31.9-14.2c6.7-2.9,13-0.1,19.4,1.6
		c0.5,0.1,0.9,0.4,1.4,0.6c16.2,8.5,33.4,7.2,50.6,4.7c4.9-0.7,10.2-1.8,14.6-4.7l-0.1,0c1-0.4,1.7-1.7,3.1-1
		c2.5,5.2,7.4,3.4,10.9,2.7c11.3-2.1,22.4,0,33.4,1.7c4.1,0.7,7.3-0.5,10.8-1.6c5.5,5.5,11.7,7,18,4.4c5.3-2.2,9.1-7.9,9.1-13.7
		c0-2.8-0.8-5.1-2.7-7.2c-8.1-9-15.8-18.4-25.3-26.1c-0.7-0.6-1.1-1.2-0.8-2.1c5.4-4.9,5.6-5.1,10.9,0c6.2,5.9,12.2,12.1,18.2,18.2
		c8.2,10.4,17,20.4,24.3,31.5c3.2,4.8,7.2,9.2,8.1,15.2c-0.5,1.3-1.5,2.5-2.9,2.4c-6.1-0.5-10.8,2.9-15.7,5.4
		c-4.9,2.5-10.1,4.2-15.1,6.6c-8.6,4.1-16.2,9.8-24,15.2c-7,4.9-13.5,2.4-15.5-5.9c-0.4-1.6-0.6-3.3-1-4.9c-1.3-4.8-4.3-7.6-9.2-8.7
		c-11.1-2.3-21.9,0.3-32.6,2.2c-5.6,1-11.1,2.2-16.6,3.3c-12.4,2.3-23.9-0.2-34.5-6.6c-9.1-5.4-18.9-8.8-29.2-9.2
		c-9.4-0.3-19.1,0.8-27,7c-7.2,5.6-14.9,10.8-18.8,19.6c-0.5,0.9-1.2,1.6-1.6,2.5c-0.6,1-0.8,2.5-2.5,2
		C279.9,705.9,279.2,703.2,278.3,700.6z"/>
	<path class="st71" d="M284.2,704.5c0.2-5,3.8-8.1,6.8-11.1c3.8-3.9,8-7.6,12.6-10.4c10.6-6.5,22.2-7.9,34.6-6.1
		c12,1.8,21.7,8.8,32.6,13.2c7,2.9,14.1,3,21,2.1c12.1-1.6,24-4.4,36.1-6.4c6.2-1,12.6-0.7,18.7,1.1c5.5,1.6,7.6,6.2,8.4,11.3
		c1.9,11.3,6.6,13.1,15.6,6.4c9.7-7.2,19.8-13.7,31.4-17.7c5.4-1.9,10.9-4.2,15.6-7.5c3.3-2.3,6.9,0.6,9.7-2
		c1.7,2.9,3.3,5.8,5.2,8.5c1,1.4,0.4,2.4-0.4,3.4c-8-0.7-15.5,0.3-23.1,3.5c-16,6.7-29.7,17-43.8,26.5c-7.8,5.3-15.7,10.6-22.7,17
		c-2.5,2.3-5.4,3.8-8.4,5.3c-2.8,1.4-5.5,1-7.8-1.3c-2.2-2.2-2.4-4.7-1.2-7.3c2.1-4.5,4.3-8.9,7.7-12.7c4.7-5.1,7.2-11.5,8.8-18.3
		c1-4.2-0.3-5.5-4.6-6.5c-7.7-1.8-15.3-0.5-22.8,0.8c-9.5,1.7-19.1,2.1-28.7,3.1c-6.4,0.6-12.3-2.4-18.4-4
		c-6.6-2.8-12.9-6.1-19.5-8.7c-14-5.4-27.4-5.1-40.7,2.2c-5,2.8-9.1,6.6-12.7,11c-1.3,1.5-2.4,3.2-4.1,4.3c-1.2,0.7-2.4,1.5-3.6,2.4
		c-0.7,0.5-1.6,1.4-2.4,0.3C283.3,706.2,283.6,705.3,284.2,704.5z"/>
	<path class="st72" d="M289.2,703.5c5-4.5,8.5-10.5,14.5-14.1c14.1-8.6,28.6-10,44.1-3.8c6.6,2.7,13.1,5.6,19.4,8.9
		c8.7,4.6,18.1,5.5,27.5,3.9c8.7-1.5,17.5,0.1,26.2-1.8c4.3-0.9,8.5-2.6,13.1-0.7c5.9,2.3,7.7,5,5.7,11.1
		c-1.9,5.7-4.7,11.1-9.1,15.3c-3.5,3.4-5.3,7.6-6.7,12.1c-0.8,2.5-1.1,5.5,1.2,7.5c2.6,2.2,5.6,1.5,8.5,0.1c0.7-0.3,1.5-0.8,2.1-1.3
		c9.6-7,19.4-13.9,28.8-21.3c7.9-6.3,16.6-11.6,25.5-16.5c3.4-1.8,6.8-3.6,9.8-5.9c3.2-2.4,7-2.8,10.7-3.8c1.9-0.5,3.3,0,4.3,1.6
		c1.3,2.1-0.4,3.1-1.8,4c-1.8,1.2-3.4,2.3-1.9,4.7c-1,1.3-2.4,1.9-3.9,2.3c-2.4-1.9-3.3-0.4-3.9,1.8c-1.5,1.6-2.7,3.7-5.1,4.2
		c-0.6-0.2-1.3-0.6-1.9-0.3c-11,4.5-22.1,8.5-31.3,16.4c-7.4,6.3-15.1,12.4-23.4,17.6c-4.8,3.1-8.7,7.4-14.9,8.4
		c-4.3,0.7-6.9-0.3-9.1-4c-3.3-5.6-3.1-11.4-2-17.4c1-5.9,3.8-11.3,5-17.2c1.2-5.8,1.2-5.9-4.9-5.4c-0.7,0.1-1.3-0.2-1.8-0.7
		c2.9-2.9,6.9-4.4,9-8.1c-4.8,2.4-8.8,6.2-13.8,8.2c-0.2,0.3-0.7,0.5-0.8,0.4c-2.8-4.5-7.3-3.2-11.2-2.9c-4.7,0.3-9.3,0.1-13.9-0.1
		c-5.7-0.3-10.9-1.2-15.9-4.7c-9.6-6.6-21-9.2-32.1-12.1c-2.7-0.7-5.5-0.8-8.4,0c-2.2,0.6-4.6,0.7-6.8-0.5c-2,0.6-2.5,2.7-4,3.8
		c-7.3-1.8-16.4,3.6-18.5,11c-1,3.7-1.6,7.6-4.1,10.6c-1.3,1.6-2.6,4.3-5.5,2.2C289.3,712.7,287.9,708,289.2,703.5z"/>
	<path class="st73" d="M414,709.4c10.1-2.5,10-2.6,7.5,8c-1.9,7.8-5.7,15.2-5.3,23.6c0.2,4.1,2,7.3,3.9,10.6c0.7,1.2,2,2.3,3.3,1.8
		c4.2-1.6,9.1-1.1,12.6-4.9c4.9-5.4,11.7-8.5,17.5-13c9.4-7.4,18.6-15.4,29.8-20.6c1.5-0.7,2.9-1.5,4.6-1.3c2.4,0.2,4.3-0.2,6-2.6
		c1.4-2.1,3.6-2.5,4.5,0.9c-6.2,5.6-13.2,10.1-19.1,15.9c-5.7,5.6-10.7,11.8-15.8,17.9c-3-5-4.1-4.8-9.2-1.6
		c-7.7,4.9-14.8,10.5-21.7,16.6c-6.4,5.7-15.8,2.9-20.4-5.5c-3.7-6.8-3.5-14.1-2.3-21.4c0.9-5.7,0.2-11.4,0.7-17.1
		c0.1-1.7-4-0.8-5.2-2.9C408.2,712.2,411.1,710.8,414,709.4z"/>
	<path class="st74" d="M511.2,703.5c-1.8-0.1-2.3-1.8-3.9-2.8c2.1-1.2,3.9-2.2,5.6-3.2c0.8-0.5,2.2-0.7,1.2-2
		c-0.5-0.7-1.2-2.1-2.3-1.6c-3.4,1.8-7.5,1.3-10.8,3.6c-10.7,7.3-23.2,11.8-32.9,20.3c-7.8,6.8-16.7,12-24.5,18.7
		c-3.4,2.9-7.3,5.2-11.2,7.3c-2.6,1.4-5.7,1.4-8.1-0.5c-3-2.3-2.6-5.9-1.7-8.8c1.5-4.8,3.2-9.8,7.4-13.3c4.1-3.4,5.9-8.4,8.1-13
		c1.4-2.8,2.7-6.7,0-8.9c-3.4-2.7-7.7-3.9-12.6-2.9c-6,1.3-11.7,4.3-18.4,1.5c-2.6-1.1-6.4,0.6-9.7,1c-9.8,1.1-19.6,1.7-28.7-3.2
		c-0.6-0.3-1-0.8-1.5-1.2c4-0.2,7.1,2.6,10.9,3.1c12,1.5,23.7-0.7,35.4-2.4c8.5-1.2,17-2.4,25.6-0.7c3.7,0.7,4.5,3.3,4,6.3
		c-1.2,7.3-4,14.2-8.8,19.8c-3.5,4-5.8,8.5-8.2,13c-1.3,2.3-1.2,4.3,0.8,6.3c2.2,2.1,4.5,2.2,6.8,0.8c3.9-2.5,7.8-5,11.5-7.8
		c16.5-12.8,33.5-24.7,51.5-35.3c7.8-4.6,16.4-6.7,24.3-10.4c1-0.5,2.2-0.8,2.8,0c1.9,2.8,2.9,1.2,4.7-0.3c3.4-2.6,1,3.3,3.4,2.7
		c-3,4.8-8.1,6.9-12.7,9.6C516.7,700.6,513.9,702,511.2,703.5z"/>
	<path class="st74" d="M503.4,707.6c-2.1-2.2-0.9-3.4,1.4-4c1.5-0.4,3.5-0.5,2.5,2.2C506.3,707.1,505.1,707.8,503.4,707.6z"/>
	<path class="st75" d="M315.2,784.5c-1.4,2.6-1,4.8,0.5,7.4c3.3,5.9,7.1,11.7,8.3,18.5c0.3,1.8,1.3,4.6-0.7,5.4
		c-1.9,0.7-3.3-1.8-4.1-3.6c-4.8-10.6-12.8-18.9-19.7-28.1c-7.2-9.6-17.2-16.4-25.2-25.1c-3.1-3.4-3.1-4.9,1.1-6.9
		c4.8-2.3,10-3.8,15.2-4.4c4-0.5,5.6,3.5,7.8,6c1.7,2.5,5.3,2.1,6.9,4.7c3.4,6.9,5.3,14.5,9.1,21.2
		C315.3,781.2,316.9,782.6,315.2,784.5z"/>
	<path class="st76" d="M315.2,784.5c-3.5-7.1-6.6-14.3-9.5-21.6c-0.6-1.6-1.7-2.8-0.5-4.4c7.8,4.2,12.3,10.7,14.9,19.2
		c2.5,8.1,5.9,15.9,9.4,23.6c6.1,13.2,7.5,27.1,7.6,41.3c-7.4,1.5-11.9-2.3-15-8.5c-1.8-3.6-3.6-7.1-4.8-10.9
		c-1-3.2-2.5-6.2-4.8-8.7c-8-8.9-13.8-19.6-22.5-27.8c-2.3-2.2-4.9-3.9-7.9-5.9c-0.3,2.3-0.2,4.6-3.1,4.3c-1-1.1-2-2.2-2.9-3.3
		c0-2.9-2-5.8,0-8.8c1-1.6,1.7-2.6,3.8-1.2c4.2,3,8.1,6.1,11.8,9.8c10.6,10.4,17.8,23.3,26.5,35c2.7,3.7,5.1,8.1,7.2,12.4
		c0.5,1,1.3,2.2,2.5,2.2c1.8,0,1.8-2,1.9-3c0.3-7.5,1.1-14.7-2.9-22.1c-3-5.5-4.6-12.1-7.8-17.8C318.2,786.4,317,785.2,315.2,784.5z
		"/>
	<path class="st77" d="M308.4,853.5c-2.4-13.5-5.5-26.8-9.1-40c-0.1-2.9,0-4.2,4.1-3.3c6.3,1.4,8.8,6.1,11.7,10.6
		c2.2,3.3,3.6,7.1,4.3,11.1c1.1,6,4.8,10.2,9.5,13.5c3,2.1,6.1,2.6,8.5-1.1c1.5,3.6,0.6,7.4,0.9,11.1c0.5,3.8-2,3-3.9,2.4
		c-4.4-1.4-8.5-3.6-12.5-5.9c-5.5-3.3-6.5-3-10.4,2.2C309.7,856.4,309,855.6,308.4,853.5z"/>
	<path class="st78" d="M308.4,853.5c0.7,0.3,1,2.3,2.1-0.1c2.8-6.1,4.8-6.7,10.8-3.3c4.3,2.5,8.7,4.8,13.3,6.6
		c1.7,0.6,3.2,1.4,3.7-1.3c2.5,14.7-2.6,20.7-16.9,18.9c-2.1-1.3-4.6-1.1-6.8-2.6c-3.5-2.4-5.7-5-5.4-9.6
		C309.3,859.4,308.7,856.4,308.4,853.5z"/>
	<path class="st79" d="M337.4,844.3c-0.1,1.5-0.3,3-0.4,4.7c-11.2-1.5-17-7.9-19-18.6c-1.2-6.4-5.6-11.4-9.2-16.6
		c-1.8-2.7-6-0.9-8.2-3.3c-0.6,0.9,0,2.4-1.3,3.1c-4.5-8.9-11.1-16.3-17.1-24.1c-1.1-1.4-2.1-3-3.1-4.4c0.1-1.3,3-0.6,1.9-2.7
		c-0.5-0.8-2.3-1.5-0.4-2.7c1.4-1,2.6-0.2,3.7,0.6c8.3,6,14.7,13.8,20.4,22.1c0.3,0.4,0.4,1,0.7,1.3c9.3,8.9,13.5,20.7,19,31.8
		c1.8,3.5,4.3,7.3,9.7,5.9c0.9-0.2,2.1,0.8,3.2,1.3C337.2,843.1,337.3,843.7,337.4,844.3z"/>
	<path class="st80" d="M409.3,655.4c-4.6,5.1-11.3,4.7-17.2,6c-10.1,2.2-20.5,0.8-30.8,1c-1.9,0-3.6-0.6-5.3-1.4
		c-2.4-1-4.9-2-7.3-3.1c-11.5-5.3-22.6-6.9-34.6-0.1c-8.3,4.7-17.5,7.8-26,12.4c-1.1,0.6-2.3,2.5-3.8,0.4
		c12.5-7.6,26.1-13,39.6-18.4c6.3-2.6,12.7-0.2,18.9,1.7c2.2,0.7,4.4,1.4,6.4,2.5c6.6,3.6,13.7,3.8,21.1,4.3
		C383.8,661.6,396.6,659.3,409.3,655.4z"/>
	<path class="st81" d="M275.1,669.6c0.2,1.3-0.1,2-1.5,1.5c-11.5-4.2-23.7-5.8-35.4-9.4c-0.3-0.2-0.4-0.5-0.3-0.7
		c0.1-0.2,0.2-0.3,0.4-0.3C250.7,662.8,262.9,666.2,275.1,669.6z"/>
	<path class="st82" d="M238.2,660.7c0,0.3-0.1,0.7-0.1,1c-4.2-0.1-8.2-1.4-12.2-2.2c-1.2-0.2-1.8-0.7-1.6-2
		C228.9,658.6,233.6,659.6,238.2,660.7z"/>
	<path class="st83" d="M412.3,654.5c-1.1,0.2-1.8,1.5-3.1,1c1.7-2.5,3.5-4.7,7-3.9C414.9,652.6,413.6,653.5,412.3,654.5z"/>
	<path class="st84" d="M399.3,473.5c-1,1.3-2,2.7-3,4c-0.6-0.5-0.9-1.2-0.9-2c-0.1-1.5,0.5-2.9,0.8-4.4c0.3-1,0.7-1.9,1.3-2.7
		c3.7-6.3,2.8-13.2,2.1-19.9c-0.3-3.2-2.6-5.8-6.4-6.1c-3.5-0.3-6.2,0.7-8.5,3.9c-2.4,3.4-2.3,8-5.4,11c-0.7,0-1.3,0-2,0
		c-0.5-0.5-1.3-0.9-1.2-1.5c1.4-7-3.8-12.5-4.2-19.2c-0.3-4.3-2.3-8.3-3.2-12.5c-1.7-7.8-1.1-15.2,4.8-21.3c2-2.1,4.1-4.4,7.6-3.8
		c1,3.4-2.2,4-3.8,5.6c-5.8,5.8-6.2,13-1.7,19.8c3.7,5.5,8.7,6.4,14.4,5.4c5-0.8,7.9-4.7,9.9-9c1.4-2.9,1.9-5.9,0.8-9.2
		c-0.6-1.6-1-3.6,1.2-4.8c2.8,0.8,2.9,3.3,3.3,5.5c0.9,5.1,0.4,10-1.8,14.6c-1.7,3.5-2.1,7.1-0.5,10.6c3.9,8.6,2.9,17.1,0.3,25.7
		l0,0c-1.1,2.6-1.7,5.4-3,8C399.4,471.9,399.3,472.7,399.3,473.5z"/>
	<path class="st85" d="M375.3,497.5c-1.4,0-2.5,0.7-3,2c-9.7-0.8-16.6-5.7-17.5-13.6c-0.6-4.8,0.1-9.9,1-14.8c0.6-3-0.3-6.3,1.9-8.9
		c-1.4-1.1-3.3,0-4.3-1.5c8.3,1.9,8-5.8,10.9-10.2c3.3,2.9,2.4,7.9,6.1,10c0.3,0.3,0.9,0.4,1,1c-0.9,6-5.3,10.1-8.1,15.1
		c-4.7,8.3-0.5,17.3,9,18.8C373.5,495.7,374.6,496.2,375.3,497.5z"/>
	<path class="st86" d="M381.2,399.5c-5.8,1.1-11.4,7.3-12,13.4c-0.6,6.7,0.5,13.1,3.2,19.3c0.6,1.3,0.9,2.5,0.8,3.8
		c-0.3,3.6,0.2,6.8,3.2,9.4c1,0.9,3.8,2.6,0.5,5c-0.9,0.6-0.7,4.6,0.3,6.9c-4.2,1.2-6.7-0.5-8-4.6c-0.7-2.2-1.8-4.2-2.7-6.3
		c-1-2.4-2.5-2.2-4.2-0.7c-1.5-4.1-1.3-8.6-1.1-12.7c0.5-8.1,2.9-15.9,6-23.4c3.9-5.8,8.1-11,15.6-12.5c3.9-0.8,7.1,0.5,10.4,1.6
		C390.6,401.4,386,401.8,381.2,399.5z"/>
	<path class="st87" d="M398.2,469.5c-0.8,0.4-0.9,1.2-1,2c-0.4,0.3-0.9,0.3-1.3,0c-1.5-3.2,0.9-6.1,0.9-9.2
		c-0.1-3.4,1.7-8.9-1.3-9.6c-3.4-0.8-3.9,4.8-5.1,7.9c-1.5,3.9-2.8,7.8-4.3,11.7c-0.7,1.8-2.2,3.8-0.3,5.5c1.6,1.5,3.5,0.2,5.2-0.3
		c0.5-0.1,1-0.3,1.5-0.3c0.5,0,0.9,0.3,1.1,0.7c-0.7,5.6-5.1,7.8-9.5,8.6c-3.7,0.6-7.1-0.5-10.3-4.3c-4.1-4.9-2.8-8.5-0.5-12.9
		c1.5-2.8,3-5.5,3.9-8.6c1.7-0.7,4.4,1,5.1-2.2c1.2-5.6,6.4-10.8,11.9-11.9c3.4-0.7,5.7,0.7,6,4C400.8,457,400.9,463.4,398.2,469.5z
		"/>
	<path class="st88" d="M367.2,409.5c-0.5,5.1-1.4,10.1-3.1,14.9c-1.5,4.2-2.6,8.4-1.1,13c0.9,2.6-0.1,5.5-0.8,8.3
		c-0.6,1.4-1.2,2.8-1.9,4.2c-1.5-1.6-2.6-0.4-3,0.8c-0.5,1.5-0.4,2.3-2.3,1.1c-1.6-1-2.7-2.2-1.5-3.4c1.7-1.9,0.8-3.6,0.7-5.5
		c-0.4-8.5,0-16.9,3.1-24.9c1.1-2.8,0.9-5.9,2.8-8.4C362.6,409.5,364.9,409.5,367.2,409.5z"/>
	<path class="st89" d="M377.2,460.7c1.6,3.9-1.4,6.5-3.1,9.2c-1.6,2.6-2.1,5.1-1.9,8c0.1,1,0.1,2.1,1.3,2.4c1.7,0.4,4.4,0.3,1.4,3
		c0,0,0.5,0.7,0.5,0.7c3.3-1.4,5.7,3.1,9,1.5c3.7-1.8,7.3-3.7,8.8-8c0.4-1.4,1.1-2.6,2.9-2c0,0.7,0,1.3,0,2
		c-1.6,1.3-0.8,3.6-2.1,4.9c-3.4,2.9-6.6,6-10.7,7.9c-3.4,1.6-12.1,0.3-14.8-2.6c-4.1-4.3-4.1-8.6-0.4-13.8c2-2.8,3.7-5.8,5.6-8.7
		c2.3-3.5,0.2-3.9-2.7-3.6c-0.3-0.3-0.7-0.7-1-1C372.6,460.6,374.9,460.7,377.2,460.7z"/>
	<path class="st90" d="M398.2,469.5c0.8-5.8,2.2-11.5,1.1-17.5c-0.9-4.5-2.2-5.2-6.6-3.5c-5.1,1.9-7.4,6.2-10.4,10.1
		c-0.8-1.1-2-0.8-3.1-1.1c1-3.7,1.7-7.5,3.9-10.9c3.2-4.9,5.6-6.2,11.3-5.1c5.2,1,6.5,5,6.7,9.1
		C401.3,456.9,402.5,463.6,398.2,469.5z"/>
	<path class="st91" d="M403.3,463.5c0.3-3.1,0.8-6.2,1-9.4c0.3-5.2-0.2-10.1-2.5-15c-1.9-4.1-2.1-8.4,0.5-12.9
		c2.6-4.4,2.5-9.6,1.8-14.6c-0.2-1.5-0.2-3.9-2.8-4.2c-0.6-0.4-0.9-0.9-1.3-1.5c-0.8-2.4-4.3-3.3-3.8-6.5c5.5,2,8.2,6.6,9.8,11.6
		c0.9,3,1.8,6,2.9,8.9c2.2,5.8,3.6,11.8,1.3,17.9C407,446.2,407.4,455.5,403.3,463.5z"/>
	<path class="st92" d="M401.2,405.6c0,0.6,0,1.3,0,1.9c-0.6,3.1,1.9,5.7,1.5,8.7c-0.7,6.4-4.7,10.8-9.4,14.5
		c-3.4,2.6-13.8,0.8-16.7-2.4c-8.2-9.2-7.8-20.4,2.9-27c0.7-0.4,1.1-1.2,1.7-1.8c4-0.6,8.2,1,12-0.9c0.3,0.3,0.7,0.6,1,0.9
		C396.9,401.2,398.6,403.8,401.2,405.6z"/>
	<path class="st86" d="M401.2,405.6c-3.3-0.9-5-3.6-6.9-6.1c0.7,0,1.3,0,2,0C397.9,401.5,399.6,403.5,401.2,405.6z"/>
	<path class="st26" d="M400.2,471.5c0.3-2.9,0.9-5.8,3-8C403.5,466.6,402.4,469.2,400.2,471.5z"/>
	<path class="st5" d="M239.3,820.5c-5-5.8-10.5-11.3-11.4-19.6c0-0.4-1.1,0.2-1.6,0.6c-2.2-2.6,0.6-3.2,1.8-3.7c2-0.9,2,1,2,2.3
		c0.4,8.3,4.2,14.4,11.7,18.1c0.8,0.4,1.5,0.8,1.1,1.8c-0.5,1.1-1.5,1.9-2.6,2.1C239.1,822.4,239.3,821.3,239.3,820.5z"/>
	<path class="st5" d="M261.2,854.5c-0.2-1.2,0.6-2.7-1.3-3.3c-8.5-2.9-13-9.2-14.7-17.7c-2.4-2.2,0.3-3.1,1.3-3.4
		c2.2-0.6,1.8,1.5,1.7,2.6c-0.7,8.4,3.3,13.4,11,15.9c0.7,0.4,1.5,0.7,2.1,1.2c1.1,1,3.5-0.1,3.6,1.8
		C264.8,853.5,262.7,853.9,261.2,854.5z"/>
	<path class="st5" d="M275.2,876.6c-4.7-2.7-7.3-6.8-8.2-12.1c0.8-1.4-1.6-3.1,0.3-4.5c1.8,0.4,1,1.8,1.3,2.8
		c1.1,5.1,2.1,10.2,8.1,12.1c0.7,0.2,1.8,0.7,1.2,1.7C277.2,877.7,276.1,876.9,275.2,876.6z"/>
	<path class="st93" d="M348.9,703.6c6.8,3.7,13.5,7.6,17.1,15c-2.5,5.4-3.9,6.3-9.5,4c-7.4-3.1-15-5.1-22.7-3.9
		c-12.5,1.9-25.4,3.7-34.9,13.7c-1.3,1.4-2.5,2.9-5,1c-2.1-1.6-3.7,1.3-5.6,2.1c-0.8,0.4-1.8,1.4-2.6,0.3c-0.3-0.4,0.3-1.5,0.5-2.3
		c5-3.8,7-9.9,11.2-14.3c1.7-1.8,3-3.8,4.6-5.8c5,1.9,9.6-0.8,14.4-1.4c9.7-1.2,19.1-4.2,28.9-4.9c1.9-0.1,2.4-0.6,1.7-2.6
		C346.7,703.5,347.8,702.6,348.9,703.6z"/>
	<path class="st94" d="M261.3,733.5c3.7,3.7,8.4,3.1,13,3.3c-0.5,0.7-2.7,1.9,0.4,1.6c2.6-0.3,6.3-2.7,7.2,1.2
		c0.8,3.8-3.4,4.6-6.3,5.7c-0.5,0.2-1,0.3-1.4,0.4c-3.7,1-7.5,3.8-11.1,0C259.7,742.1,259.3,737.9,261.3,733.5z"/>
	<path class="st95" d="M392,748.6c-6.8-8.7-13.5-17.4-20.6-26.5c4.9-0.8,9.6-0.9,14-2.3c2.2,2,4.7,2.4,7.3,1.2
		c5.3-2.3,9.9-0.4,10.3,5.2c0.5,7,0.5,14-3.1,20.6c-1.7,3.1-2.6,3.6-5.2,1.6C393.8,747.6,392.9,748.3,392,748.6z"/>
	<path class="st96" d="M320,689.6c7.7-1.1,15.1-1.4,23,1.2c8.7,2.9,17.5,5.2,25.1,10.2c8.1,5.5,16.9,4.4,25.7,4.5
		c5.3,0.1,10.5,0,15,0c2.5,1.9-4.2,2.2,0.3,3.9c-11.3,5.8-23.2,9.7-36,10.2c-2.4,0.1-4.3-0.4-5.6-2.4c-5.6-9-14.6-13.8-23.5-18.6
		c0.5-1.7,2.3,0.7,2.7-1.7c-9.2-1.5-18.6-1.9-28-2.5C318.2,692.4,320.6,691.4,320,689.6z"/>
	<path class="st97" d="M348.9,703.6c-0.7,1.5-0.7,1.5,2.1,3.4c-8.7,1.6-16.8,2.8-24.9,4.5c-6.3,1.4-12.9,1.1-18.8,4.3
		c-2.6,1.4-3.7-1.4-5.3-2.5c3.3-5.8,7.8-10.7,12.4-15.4c1-1,2.1-1.4,3.6-1.4c4.8,0.1,9.6,0.1,14.4,0.3
		C338.7,697,344.2,699.4,348.9,703.6z"/>
	<path class="st98" d="M278.3,700.6c4.2,1.5,2.5,5.3,3.1,8.2c1.8,2.9,0.1,5.3-1.2,7.8c-2.7,2.9-7.1,2.4-10,4.9c-3.8,0-7.6,0-11.8,0
		c1.4-7.1,4-13.5,6.4-19.9c0.3-0.9,0.5-2.1,1.8-2C270.5,699.8,274.6,698.3,278.3,700.6z"/>
	<path class="st99" d="M289.2,703.5c0.9,4.8,2.1,9.5-1,14c1.5,2.8-1.6,4.1-2.1,6.3c-2.7,2.9-5.1,6.1-7,9.7
		c-9.5,3.6-15.6,1.8-19.5-5.4c-1.8-3.3-1.3-5.3,2.7-5.3c3.3,0,6.6,0.5,9.9,0.7c5.2,0.6,7-2.7,8-7c0.9-3.6,3.2-7,2-11
		c0.3-0.9,1.1-1,2-1.1c0,0.5-0.1,1,0.1,1.5c0.4,1.2,0.7,0.3,1.2,0C286.7,705.1,288,704.3,289.2,703.5z"/>
	<path class="st100" d="M285.3,723.5c-0.2-2.6,3.1-3.4,3-6c4.4-1.1,6.4-4.8,6.7-8.4c0.9-9.5,6.8-13.9,14.6-17.5
		c3.1-1.4,4.9-1.1,6.5,1.7c-9.1,9.3-16.6,20-24.7,30.2C289.3,726.7,287.3,725.7,285.3,723.5z"/>
	<path class="st101" d="M285.3,723.5c2-0.3,4,2.4,6.1,0c-2.6,5.1-5.3,10.1-12.1,9.9C279.1,728.8,282.4,726.3,285.3,723.5z"/>
	<path class="st102" d="M282.3,705.6c2.3,1.3,1,3.3,0.7,4.8c-0.6,2.9-1.6,5.7-2.4,8.5c-2,6.5-2,6.5-8.3,4.6c0.4-0.4,0.9-0.8,1.3-1.2
		c3.4-0.5,4.2-3.5,5.6-5.8c1.2-2.4,2.1-5,2.2-7.7C281.7,707.7,282,706.6,282.3,705.6z"/>
	<path class="st103" d="M279.2,716.5c-0.8,3,0,7.5-5.6,5.8c-1.1-0.3-2.3-0.6-3.4-1C271.8,717.2,276.2,718.1,279.2,716.5z"/>
	<path class="st90" d="M396.2,475.5c-1,0.7-1.9,1.3-2.9,2c0,0-0.2,0-0.2,0c-0.9-3-0.2-5.1,3.1-6c0.3,0,0.7,0,1,0
		C396.9,472.8,396.6,474.1,396.2,475.5z"/>
	<path class="st104" d="M396.2,471.5c-1.6,1.7-2.5,3.7-3.1,6c-1.3,0.6-2.2,2-3.9,2c-1.7,0-3.4,1.5-5-0.5c-1.3-1.7-1.1-3.3-0.2-5.1
		c3.5-6.8,4.5-14.6,8.5-21.2c0.7-1.2,0.6-3.9,3.1-2.8c1.9,0.7,2.5,2.4,2.6,4.4C398.8,460.2,397.4,465.8,396.2,471.5z"/>
	<path class="st105" d="M398.3,409.5c3.9,3.8,1.3,7.9-0.2,11.4c-1.6,3.7-4.2,7-9.4,6.7c-4.7-0.3-9.6,0.6-12.1-4.6
		c-2.6-5.3-1.7-10.8,0.9-15.8c2-4,6.5-5.9,10.4-5.4C392.1,402.4,397.2,403.8,398.3,409.5c-2.1,0.8-3.4-1-4.9-1.7
		c-4.6-2.1-8.8-0.8-10.3,3.5c-1.4,3.9,0.4,8.1,4.1,9.4c3.8,1.3,9-1.8,10.1-6C397.7,413,396.7,411,398.3,409.5z"/>
	<path class="st106" d="M398.3,409.5c0.9,6.9-0.8,10.1-6.1,12.2c-4.2,1.7-7.3,0.2-9.5-2.8c-2.5-3.5-2.1-7.5,0.7-11
		c2.8-3.4,6.4-3,9.9-1.6C395.1,407,396.6,408.4,398.3,409.5C398.3,409.5,398.3,409.5,398.3,409.5z"/>
</g>
</svg>
